<svg xmlns="http://www.w3.org/2000/svg" id="main-svg" viewBox="0 0 2000 663"><style>
  .sezione {
    fill: #e5e7eb;
    stroke: #9ca3af;
    stroke-width: 1;
    cursor: pointer;
    transition: fill 0.2s, stroke 0.2s;
  }
  .sezione:hover {
    fill: #93c5fd;
    stroke: #3b82f6;
    stroke-width: 2;
  }
  .sezione.selected {
    stroke: #1f2937;
    stroke-width: 3;
  }
  .sezione.highlighted {
    stroke: #f59e0b;
    stroke-width: 2;
  }
  text {
    pointer-events: none;
    user-select: none;
  }
</style>
                <g id="paths-layer">

            <path class="sezione" d="M 715 241 L 705 230 L 700 229 L 701 218 L 699 209 L 679 214 L 658 226 L 656 225 L 643 231 L 629 233 L 620 231 L 616 234 L 616 229 L 612 225 L 601 220 L 589 203 L 575 196 L 574 191 L 567 185 L 557 188 L 548 187 L 547 192 L 543 195 L 544 201 L 540 203 L 533 195 L 529 196 L 527 199 L 522 196 L 522 179 L 508 166 L 496 167 L 489 139 L 476 142 L 468 148 L 456 148 L 454 150 L 452 148 L 451 136 L 446 124 L 416 103 L 414 74 L 405 56 L 398 51 L 372 53 L 362 47 L 362 31 L 364 29 L 362 17 L 356 18 L 353 23 L 340 24 L 338 21 L 333 22 L 319 39 L 316 36 L 316 33 L 312 32 L 312 40 L 310 42 L 303 33 L 298 30 L 288 43 L 280 43 L 275 40 L 275 36 L 272 33 L 273 31 L 264 27 L 255 37 L 247 41 L 243 50 L 236 57 L 235 63 L 225 81 L 222 99 L 215 107 L 214 114 L 217 121 L 215 125 L 211 126 L 211 130 L 214 134 L 225 135 L 233 144 L 240 143 L 255 159 L 259 170 L 265 172 L 262 177 L 262 182 L 270 181 L 274 183 L 272 192 L 276 198 L 274 222 L 267 227 L 254 231 L 241 238 L 241 242 L 231 249 L 218 241 L 215 237 L 210 237 L 208 239 L 201 237 L 197 240 L 197 243 L 194 246 L 184 248 L 175 258 L 174 254 L 166 255 L 163 267 L 168 280 L 174 286 L 174 297 L 181 306 L 180 322 L 178 320 L 162 320 L 154 325 L 149 323 L 144 326 L 142 324 L 138 325 L 130 313 L 121 308 L 115 311 L 109 318 L 105 328 L 98 328 L 103 347 L 107 352 L 105 360 L 108 364 L 111 381 L 115 386 L 120 388 L 118 391 L 113 389 L 107 392 L 108 400 L 112 402 L 116 408 L 113 415 L 112 430 L 107 431 L 98 425 L 101 444 L 107 448 L 107 454 L 103 458 L 104 462 L 109 464 L 110 475 L 115 482 L 134 482 L 142 480 L 163 458 L 170 453 L 176 452 L 187 455 L 187 465 L 189 465 L 192 470 L 199 472 L 207 460 L 207 451 L 221 441 L 226 428 L 252 413 L 257 399 L 257 384 L 261 378 L 259 365 L 264 352 L 283 352 L 305 389 L 311 391 L 315 388 L 321 392 L 334 391 L 337 393 L 340 400 L 347 402 L 354 398 L 357 399 L 362 397 L 365 388 L 373 380 L 391 386 L 398 384 L 408 385 L 414 382 L 423 373 L 436 373 L 445 365 L 445 363 L 438 359 L 440 351 L 446 346 L 439 340 L 439 335 L 451 330 L 457 324 L 462 322 L 462 319 L 459 316 L 464 313 L 464 307 L 470 300 L 482 298 L 495 288 L 501 289 L 515 298 L 519 298 L 528 303 L 536 303 L 537 300 L 552 301 L 556 300 L 562 292 L 562 289 L 550 272 L 550 267 L 553 263 L 560 265 L 564 269 L 568 269 L 574 265 L 587 263 L 603 266 L 609 263 L 629 263 L 631 261 L 637 263 L 641 260 L 658 257 L 671 249 L 675 244 L 707 245 L 715 244 Z" data-sezione="2" data-area="112881"></path>
            <path class="sezione" d="M 1151 75 L 1527 75 L 1529 77 L 1529 91 L 1535 99 L 1532 109 L 1533 110 L 1533 116 L 1534 117 L 1534 122 L 1536 130 L 1527 148 L 1523 169 L 1519 179 L 1520 195 L 1518 203 L 1518 207 L 1522 211 L 1528 222 L 1523 225 L 1521 225 L 1519 227 L 1500 233 L 1494 236 L 1491 236 L 1489 238 L 1479 241 L 1477 243 L 1472 241 L 1467 241 L 1452 252 L 1448 252 L 1444 254 L 1438 255 L 1438 257 L 1446 261 L 1457 260 L 1458 262 L 1456 267 L 1460 272 L 1462 272 L 1465 275 L 1466 282 L 1459 290 L 1434 308 L 1435 319 L 1434 320 L 1434 331 L 1433 332 L 1433 340 L 1434 341 L 1433 346 L 1435 348 L 1436 355 L 1433 358 L 1431 363 L 1431 369 L 1432 370 L 1432 378 L 1431 379 L 1427 379 L 1422 385 L 1411 374 L 1397 363 L 1398 358 L 1407 348 L 1415 344 L 1422 344 L 1424 346 L 1426 346 L 1426 340 L 1424 336 L 1423 326 L 1419 318 L 1419 313 L 1418 312 L 1419 297 L 1411 291 L 1406 291 L 1401 294 L 1398 294 L 1395 292 L 1391 292 L 1387 290 L 1381 289 L 1380 286 L 1383 283 L 1383 281 L 1378 273 L 1376 272 L 1373 260 L 1365 260 L 1357 262 L 1351 267 L 1343 270 L 1339 273 L 1337 273 L 1327 285 L 1322 289 L 1317 289 L 1302 294 L 1286 295 L 1285 296 L 1269 298 L 1264 292 L 1262 292 L 1259 289 L 1260 284 L 1254 279 L 1246 279 L 1243 281 L 1238 276 L 1232 274 L 1230 272 L 1230 269 L 1227 266 L 1209 259 L 1193 240 L 1193 235 L 1194 234 L 1194 230 L 1193 229 L 1177 230 L 1170 226 L 1169 224 L 1173 223 L 1175 219 L 1175 210 L 1167 205 L 1167 198 L 1168 197 L 1167 192 L 1164 190 L 1161 184 L 1156 182 L 1151 176 L 1151 173 L 1147 163 L 1143 160 L 1144 147 L 1142 142 L 1142 117 L 1139 112 L 1137 111 L 1134 103 L 1135 96 L 1138 90 Z" data-sezione="19" data-area="74006"></path>
            <path class="sezione" d="M 1531 75 L 1654 75 L 1658 83 L 1658 89 L 1657 90 L 1657 99 L 1658 100 L 1658 107 L 1659 108 L 1659 111 L 1664 117 L 1665 124 L 1667 128 L 1672 133 L 1674 133 L 1677 131 L 1679 131 L 1682 129 L 1684 129 L 1686 127 L 1688 127 L 1689 126 L 1698 126 L 1699 125 L 1704 124 L 1729 148 L 1729 384 L 1727 386 L 1724 386 L 1721 388 L 1718 388 L 1717 389 L 1713 389 L 1712 388 L 1708 388 L 1707 387 L 1704 387 L 1703 386 L 1697 386 L 1696 385 L 1693 385 L 1690 382 L 1689 378 L 1687 375 L 1687 373 L 1685 371 L 1682 371 L 1681 370 L 1681 364 L 1683 361 L 1683 359 L 1685 357 L 1688 357 L 1690 356 L 1690 353 L 1686 348 L 1683 348 L 1680 344 L 1681 343 L 1681 335 L 1675 328 L 1675 321 L 1676 320 L 1676 299 L 1673 294 L 1671 293 L 1671 292 L 1667 287 L 1665 287 L 1661 289 L 1657 289 L 1656 290 L 1643 291 L 1637 296 L 1634 296 L 1630 292 L 1630 290 L 1628 286 L 1633 283 L 1633 279 L 1631 276 L 1635 274 L 1640 274 L 1641 273 L 1643 273 L 1648 269 L 1651 268 L 1657 263 L 1657 260 L 1655 256 L 1652 253 L 1652 248 L 1651 247 L 1647 246 L 1644 243 L 1640 243 L 1637 240 L 1634 234 L 1632 234 L 1632 235 L 1626 242 L 1622 241 L 1617 238 L 1615 238 L 1609 235 L 1606 235 L 1600 241 L 1587 241 L 1586 242 L 1583 242 L 1580 239 L 1573 235 L 1570 232 L 1562 227 L 1559 224 L 1551 219 L 1541 211 L 1537 210 L 1536 209 L 1533 209 L 1532 208 L 1530 208 L 1529 207 L 1527 207 L 1520 204 L 1521 202 L 1521 194 L 1522 193 L 1522 185 L 1521 184 L 1521 180 L 1523 177 L 1523 174 L 1526 168 L 1526 160 L 1528 156 L 1528 151 L 1529 150 L 1529 148 L 1531 146 L 1531 144 L 1533 142 L 1533 140 L 1538 130 L 1537 128 L 1537 122 L 1536 121 L 1536 115 L 1535 114 L 1535 111 L 1534 110 L 1537 98 L 1534 93 L 1531 90 L 1531 78 L 1530 77 Z" data-sezione="50" data-area="37006"></path>
            <path class="sezione" d="M 872 344 L 878 344 L 886 337 L 895 336 L 902 330 L 904 330 L 908 328 L 913 328 L 919 325 L 925 324 L 927 322 L 932 322 L 934 320 L 941 317 L 948 310 L 949 310 L 952 312 L 960 312 L 966 316 L 970 323 L 976 329 L 985 344 L 992 351 L 998 352 L 1000 354 L 1003 354 L 1008 358 L 1008 361 L 1010 364 L 1010 366 L 1013 371 L 1013 373 L 1017 379 L 1017 392 L 1016 393 L 1016 396 L 1013 399 L 1011 399 L 1007 397 L 1004 397 L 996 393 L 991 393 L 989 390 L 989 388 L 987 384 L 987 381 L 985 377 L 985 373 L 980 368 L 976 368 L 974 369 L 971 372 L 969 378 L 965 382 L 962 382 L 960 383 L 960 402 L 964 403 L 967 405 L 969 405 L 972 407 L 974 407 L 983 412 L 983 416 L 981 419 L 979 430 L 971 440 L 972 450 L 971 451 L 971 456 L 970 457 L 970 465 L 984 465 L 986 464 L 990 458 L 993 458 L 997 453 L 997 451 L 1001 448 L 1008 448 L 1010 445 L 1012 445 L 1014 443 L 1016 443 L 1022 440 L 1023 438 L 1024 438 L 1032 430 L 1033 430 L 1042 421 L 1044 421 L 1050 417 L 1052 417 L 1053 418 L 1058 418 L 1059 419 L 1065 419 L 1069 421 L 1075 421 L 1076 422 L 1079 422 L 1082 424 L 1084 427 L 1086 439 L 1090 439 L 1091 438 L 1098 437 L 1109 429 L 1111 430 L 1111 432 L 1112 433 L 1112 436 L 1111 437 L 1106 439 L 1101 444 L 1093 445 L 1091 447 L 1087 448 L 1079 455 L 1079 456 L 1075 460 L 1074 463 L 1069 468 L 1061 472 L 1061 473 L 1059 474 L 1054 480 L 1048 480 L 1048 481 L 1045 483 L 1045 486 L 1048 491 L 1048 496 L 1050 500 L 1051 512 L 1054 519 L 1053 520 L 1053 522 L 1047 528 L 1043 535 L 1037 538 L 1037 541 L 1040 547 L 1042 548 L 1042 550 L 1041 551 L 872 551 L 871 550 L 871 345 Z" data-sezione="30" data-area="34260"></path>
            <path class="sezione" d="M 1038 181 L 1040 183 L 1040 187 L 1046 193 L 1054 193 L 1055 192 L 1057 192 L 1058 193 L 1058 194 L 1059 195 L 1059 197 L 1061 199 L 1061 200 L 1063 203 L 1063 205 L 1062 206 L 1062 212 L 1063 213 L 1063 215 L 1064 216 L 1064 217 L 1066 219 L 1080 219 L 1081 218 L 1082 218 L 1085 215 L 1087 215 L 1088 216 L 1088 217 L 1092 221 L 1093 221 L 1096 223 L 1098 223 L 1099 224 L 1101 224 L 1102 225 L 1103 225 L 1114 236 L 1115 236 L 1117 238 L 1120 238 L 1123 236 L 1125 236 L 1127 234 L 1136 234 L 1137 235 L 1136 236 L 1136 239 L 1135 240 L 1135 242 L 1136 243 L 1136 245 L 1137 246 L 1137 256 L 1138 257 L 1140 257 L 1142 255 L 1142 253 L 1144 251 L 1145 251 L 1150 256 L 1150 258 L 1145 263 L 1145 270 L 1147 273 L 1145 275 L 1141 275 L 1140 276 L 1140 277 L 1138 279 L 1138 282 L 1137 283 L 1137 285 L 1138 286 L 1138 297 L 1139 298 L 1145 295 L 1153 286 L 1156 279 L 1161 286 L 1165 293 L 1160 299 L 1149 300 L 1143 303 L 1143 313 L 1141 315 L 1136 315 L 1135 316 L 1129 316 L 1126 318 L 1124 318 L 1123 319 L 1122 319 L 1120 321 L 1120 322 L 1118 324 L 1118 325 L 1115 328 L 1115 329 L 1113 332 L 1113 334 L 1112 335 L 1112 337 L 1110 339 L 1110 342 L 1109 343 L 1109 345 L 1108 346 L 1108 348 L 1106 350 L 1101 350 L 1100 351 L 1093 351 L 1093 352 L 1091 354 L 1089 359 L 1084 364 L 1078 364 L 1077 365 L 1073 365 L 1070 367 L 1067 367 L 1059 375 L 1057 375 L 1056 376 L 1053 376 L 1052 377 L 1049 377 L 1048 376 L 1046 376 L 1045 375 L 1029 375 L 1028 376 L 1027 376 L 1026 377 L 1024 377 L 1023 378 L 1019 378 L 1017 376 L 1017 375 L 1016 374 L 1016 372 L 1014 370 L 1014 368 L 1013 367 L 1013 366 L 1011 363 L 1011 361 L 1009 358 L 1009 355 L 1008 354 L 1006 354 L 1005 353 L 1003 353 L 1000 351 L 998 351 L 995 349 L 993 349 L 987 343 L 987 342 L 985 340 L 984 337 L 983 337 L 982 336 L 981 333 L 979 331 L 979 330 L 977 328 L 977 327 L 973 323 L 973 322 L 968 316 L 969 315 L 969 312 L 968 311 L 968 309 L 967 308 L 966 308 L 957 299 L 957 298 L 955 296 L 956 295 L 958 295 L 961 293 L 961 290 L 959 287 L 961 285 L 963 285 L 963 282 L 962 281 L 962 280 L 960 278 L 960 276 L 959 275 L 959 272 L 960 271 L 960 269 L 962 266 L 962 260 L 961 259 L 961 257 L 963 255 L 971 255 L 971 249 L 970 249 L 969 248 L 969 247 L 967 247 L 966 246 L 963 245 L 960 242 L 960 236 L 964 229 L 964 224 L 963 223 L 962 220 L 958 216 L 958 215 L 957 214 L 954 213 L 950 209 L 950 208 L 952 206 L 952 205 L 954 203 L 954 202 L 955 201 L 955 197 L 956 196 L 958 196 L 961 194 L 965 194 L 966 193 L 969 193 L 970 194 L 974 194 L 975 195 L 978 195 L 979 194 L 983 194 L 984 195 L 988 195 L 991 193 L 993 193 L 994 192 L 995 192 L 996 191 L 998 191 L 999 190 L 1012 190 L 1015 187 L 1016 187 L 1017 186 L 1019 186 L 1020 185 L 1022 185 L 1025 188 L 1029 188 Z" data-sezione="14" data-area="26021"></path>
            <path class="sezione" d="M 1341 460 L 1341 462 L 1339 464 L 1339 465 L 1338 466 L 1338 467 L 1340 470 L 1340 473 L 1341 474 L 1341 475 L 1338 477 L 1335 477 L 1334 478 L 1331 478 L 1330 477 L 1326 477 L 1324 479 L 1323 479 L 1320 481 L 1320 482 L 1318 485 L 1318 487 L 1316 490 L 1316 492 L 1314 495 L 1314 497 L 1313 498 L 1313 500 L 1311 503 L 1311 505 L 1310 506 L 1310 508 L 1308 511 L 1308 513 L 1307 514 L 1306 514 L 1300 520 L 1300 522 L 1299 523 L 1299 524 L 1294 533 L 1294 535 L 1292 537 L 1292 539 L 1291 540 L 1291 544 L 1292 545 L 1292 547 L 1291 548 L 1291 549 L 1289 551 L 1044 551 L 1043 550 L 1043 548 L 1044 547 L 1079 547 L 1079 546 L 1080 545 L 1080 541 L 1081 540 L 1081 535 L 1082 534 L 1082 531 L 1083 530 L 1083 525 L 1084 524 L 1084 519 L 1085 518 L 1085 516 L 1086 515 L 1086 510 L 1087 509 L 1087 506 L 1091 501 L 1091 500 L 1092 499 L 1092 497 L 1093 496 L 1093 492 L 1094 491 L 1094 490 L 1093 489 L 1093 487 L 1099 482 L 1101 482 L 1104 480 L 1106 480 L 1109 478 L 1111 478 L 1112 477 L 1113 477 L 1114 476 L 1114 472 L 1115 471 L 1120 469 L 1122 467 L 1123 467 L 1124 466 L 1129 466 L 1130 465 L 1131 465 L 1134 462 L 1135 462 L 1135 461 L 1137 459 L 1137 458 L 1138 457 L 1138 453 L 1137 452 L 1137 449 L 1138 448 L 1138 447 L 1141 445 L 1143 445 L 1144 444 L 1146 444 L 1147 443 L 1152 443 L 1153 442 L 1157 442 L 1158 441 L 1160 441 L 1161 440 L 1164 440 L 1165 439 L 1167 439 L 1168 438 L 1171 438 L 1172 437 L 1176 437 L 1177 436 L 1180 436 L 1181 435 L 1186 435 L 1187 434 L 1192 434 L 1193 433 L 1196 433 L 1197 432 L 1205 432 L 1208 430 L 1210 430 L 1211 429 L 1214 429 L 1216 427 L 1218 427 L 1219 426 L 1221 426 L 1222 425 L 1226 425 L 1227 424 L 1235 424 L 1236 423 L 1244 423 L 1245 424 L 1247 424 L 1248 425 L 1249 425 L 1251 427 L 1250 428 L 1249 431 L 1254 434 L 1257 434 L 1258 435 L 1262 435 L 1263 436 L 1265 436 L 1266 437 L 1270 437 L 1271 438 L 1274 438 L 1275 439 L 1278 439 L 1279 440 L 1284 440 L 1285 441 L 1288 441 L 1289 442 L 1303 442 L 1304 443 L 1322 443 L 1327 446 L 1327 447 L 1329 449 L 1329 450 L 1331 453 L 1331 455 L 1332 456 L 1332 457 L 1333 457 L 1334 458 L 1336 458 L 1337 459 L 1340 459 Z" data-sezione="46" data-area="24561"></path>
            <path class="sezione" d="M 872 76 L 873 75 L 1147 75 L 1148 76 L 1139 85 L 1139 86 L 1136 89 L 1134 93 L 1133 98 L 1132 99 L 1132 102 L 1133 103 L 1134 110 L 1140 118 L 1140 142 L 1142 146 L 1142 154 L 1141 155 L 1141 160 L 1142 162 L 1143 162 L 1147 168 L 1147 170 L 1148 171 L 1148 173 L 1152 181 L 1157 185 L 1159 185 L 1162 191 L 1166 194 L 1166 199 L 1165 200 L 1165 204 L 1164 205 L 1161 205 L 1157 207 L 1150 213 L 1146 211 L 1144 208 L 1147 204 L 1147 197 L 1143 194 L 1139 196 L 1134 196 L 1133 197 L 1129 197 L 1128 196 L 1125 196 L 1124 197 L 1121 197 L 1120 198 L 1116 198 L 1112 201 L 1110 201 L 1108 202 L 1105 200 L 1103 200 L 1101 198 L 1099 198 L 1097 196 L 1095 196 L 1093 195 L 1091 193 L 1091 185 L 1090 184 L 1090 180 L 1089 178 L 1087 177 L 1083 173 L 1080 172 L 1076 168 L 1075 166 L 1075 163 L 1074 163 L 1072 160 L 1070 160 L 1069 159 L 1065 159 L 1065 166 L 1064 167 L 1055 158 L 1053 157 L 1050 157 L 1045 160 L 1040 160 L 1038 158 L 1031 158 L 1030 159 L 1028 159 L 1026 160 L 1022 156 L 1019 150 L 1017 149 L 1011 149 L 1010 150 L 1007 150 L 1005 152 L 1000 154 L 996 157 L 993 157 L 992 158 L 989 158 L 988 159 L 986 159 L 984 160 L 981 163 L 979 164 L 976 164 L 975 165 L 961 165 L 958 168 L 955 168 L 954 169 L 947 169 L 944 167 L 941 167 L 940 168 L 934 168 L 933 169 L 928 169 L 927 168 L 923 168 L 919 170 L 917 166 L 917 162 L 923 156 L 923 155 L 925 153 L 925 150 L 932 144 L 932 139 L 930 137 L 928 137 L 923 134 L 921 135 L 918 135 L 917 136 L 911 136 L 909 133 L 909 130 L 907 127 L 907 124 L 900 114 L 900 112 L 903 108 L 903 107 L 901 105 L 901 104 L 898 103 L 896 101 L 895 99 L 895 97 L 893 93 L 892 93 L 889 90 L 887 89 L 885 89 L 882 86 L 882 82 L 880 80 L 880 79 L 875 79 L 873 78 Z" data-sezione="45" data-area="22820"></path>
            <path class="sezione" d="M 1729 400 L 1729 537 L 1728 538 L 1724 534 L 1723 534 L 1722 533 L 1720 533 L 1719 532 L 1717 532 L 1716 531 L 1714 531 L 1713 530 L 1710 530 L 1708 528 L 1706 528 L 1705 527 L 1702 526 L 1700 524 L 1699 524 L 1697 522 L 1697 521 L 1690 515 L 1676 515 L 1675 514 L 1670 514 L 1668 512 L 1665 512 L 1663 514 L 1661 514 L 1658 517 L 1657 517 L 1656 518 L 1654 518 L 1652 520 L 1651 520 L 1648 523 L 1647 523 L 1644 526 L 1643 526 L 1641 528 L 1640 528 L 1637 531 L 1636 531 L 1634 533 L 1633 533 L 1627 539 L 1627 540 L 1623 544 L 1622 544 L 1622 545 L 1621 546 L 1620 546 L 1619 545 L 1617 545 L 1616 544 L 1608 544 L 1608 547 L 1609 548 L 1608 549 L 1600 549 L 1599 548 L 1597 548 L 1596 547 L 1595 547 L 1594 548 L 1592 548 L 1591 549 L 1589 549 L 1588 550 L 1586 550 L 1585 551 L 1550 551 L 1548 548 L 1548 546 L 1547 545 L 1547 543 L 1546 542 L 1545 539 L 1540 539 L 1539 538 L 1523 538 L 1522 537 L 1523 536 L 1523 533 L 1522 532 L 1522 530 L 1521 529 L 1521 523 L 1522 522 L 1522 513 L 1520 511 L 1520 510 L 1521 509 L 1521 504 L 1526 499 L 1526 497 L 1525 496 L 1525 494 L 1524 493 L 1524 491 L 1523 490 L 1523 489 L 1522 489 L 1520 487 L 1520 485 L 1522 483 L 1523 483 L 1523 480 L 1524 479 L 1524 470 L 1523 470 L 1522 469 L 1519 469 L 1518 468 L 1516 468 L 1515 467 L 1514 467 L 1513 466 L 1513 461 L 1512 460 L 1511 460 L 1510 459 L 1508 459 L 1507 458 L 1507 456 L 1510 453 L 1510 452 L 1512 450 L 1512 449 L 1515 446 L 1515 443 L 1517 441 L 1519 441 L 1520 440 L 1524 440 L 1529 437 L 1557 437 L 1558 438 L 1571 438 L 1572 437 L 1589 437 L 1590 438 L 1591 438 L 1592 437 L 1595 437 L 1596 436 L 1597 436 L 1598 435 L 1600 435 L 1601 434 L 1608 434 L 1609 433 L 1614 438 L 1615 438 L 1617 440 L 1618 440 L 1619 441 L 1630 441 L 1631 440 L 1641 440 L 1642 439 L 1644 439 L 1645 438 L 1648 437 L 1653 433 L 1654 433 L 1655 432 L 1656 432 L 1657 431 L 1662 429 L 1664 427 L 1666 427 L 1667 426 L 1670 426 L 1673 424 L 1676 424 L 1677 423 L 1679 423 L 1680 422 L 1683 421 L 1688 417 L 1691 416 L 1693 414 L 1696 413 L 1698 411 L 1701 410 L 1703 408 L 1704 408 L 1705 407 L 1710 405 L 1712 403 L 1715 402 L 1717 400 L 1718 400 L 1719 399 L 1728 399 Z" data-sezione="48" data-area="22105"></path>
            <path class="sezione" d="M 1443 256 L 1444 255 L 1448 255 L 1449 254 L 1451 254 L 1452 253 L 1455 253 L 1456 252 L 1457 252 L 1461 248 L 1462 248 L 1469 242 L 1472 244 L 1479 244 L 1482 242 L 1487 241 L 1492 238 L 1494 238 L 1495 237 L 1500 236 L 1501 235 L 1502 235 L 1503 234 L 1505 234 L 1506 233 L 1509 233 L 1514 230 L 1516 230 L 1517 229 L 1518 229 L 1519 228 L 1521 228 L 1524 226 L 1526 226 L 1527 225 L 1530 225 L 1531 226 L 1532 226 L 1541 235 L 1541 236 L 1547 247 L 1547 249 L 1548 250 L 1550 250 L 1553 252 L 1559 252 L 1560 253 L 1564 253 L 1567 256 L 1567 258 L 1568 259 L 1568 261 L 1569 262 L 1569 265 L 1571 268 L 1571 270 L 1582 280 L 1583 280 L 1584 281 L 1584 282 L 1585 282 L 1588 285 L 1589 285 L 1590 286 L 1590 287 L 1591 287 L 1592 288 L 1592 296 L 1594 298 L 1597 299 L 1601 303 L 1601 305 L 1600 306 L 1600 309 L 1603 312 L 1603 313 L 1604 314 L 1608 314 L 1612 317 L 1612 318 L 1613 319 L 1613 323 L 1614 324 L 1614 326 L 1615 327 L 1616 330 L 1619 333 L 1619 334 L 1620 334 L 1621 335 L 1623 335 L 1624 336 L 1628 336 L 1629 337 L 1629 338 L 1623 346 L 1623 349 L 1624 350 L 1624 351 L 1625 352 L 1626 352 L 1627 353 L 1627 354 L 1628 354 L 1630 356 L 1633 356 L 1634 357 L 1637 357 L 1640 359 L 1647 360 L 1649 363 L 1648 364 L 1648 368 L 1647 369 L 1647 371 L 1642 374 L 1640 374 L 1632 369 L 1629 369 L 1622 373 L 1620 373 L 1618 375 L 1616 375 L 1614 377 L 1614 378 L 1612 381 L 1610 381 L 1609 382 L 1607 382 L 1606 383 L 1603 383 L 1602 382 L 1596 382 L 1595 383 L 1594 383 L 1593 382 L 1593 381 L 1588 376 L 1588 375 L 1582 370 L 1583 369 L 1588 358 L 1594 351 L 1595 348 L 1591 345 L 1588 345 L 1587 344 L 1587 342 L 1586 341 L 1583 341 L 1582 340 L 1581 340 L 1576 333 L 1570 333 L 1569 334 L 1563 334 L 1562 333 L 1559 333 L 1557 331 L 1559 328 L 1559 326 L 1558 325 L 1557 325 L 1556 324 L 1554 324 L 1553 323 L 1549 323 L 1548 322 L 1544 322 L 1542 320 L 1541 320 L 1538 316 L 1537 316 L 1535 318 L 1534 318 L 1532 320 L 1531 320 L 1529 322 L 1528 322 L 1528 323 L 1526 325 L 1525 330 L 1523 332 L 1522 337 L 1519 342 L 1519 344 L 1517 347 L 1517 349 L 1515 351 L 1515 353 L 1514 354 L 1514 355 L 1512 357 L 1512 358 L 1511 359 L 1509 364 L 1507 366 L 1506 369 L 1503 372 L 1503 373 L 1501 375 L 1501 376 L 1498 378 L 1498 379 L 1493 385 L 1493 387 L 1492 388 L 1492 391 L 1490 393 L 1482 393 L 1481 392 L 1477 392 L 1476 391 L 1472 391 L 1472 394 L 1470 396 L 1469 396 L 1466 394 L 1463 394 L 1462 393 L 1458 393 L 1457 394 L 1456 397 L 1454 399 L 1452 399 L 1450 397 L 1448 397 L 1447 396 L 1445 396 L 1440 393 L 1438 393 L 1437 392 L 1436 389 L 1435 389 L 1432 386 L 1431 386 L 1428 382 L 1429 381 L 1432 381 L 1434 379 L 1434 370 L 1433 369 L 1433 364 L 1434 363 L 1434 361 L 1435 360 L 1435 359 L 1438 355 L 1438 352 L 1437 351 L 1437 347 L 1435 345 L 1435 335 L 1434 334 L 1435 333 L 1435 323 L 1437 320 L 1437 316 L 1436 315 L 1436 312 L 1435 311 L 1435 310 L 1437 308 L 1438 308 L 1440 306 L 1441 306 L 1443 304 L 1444 304 L 1447 301 L 1448 301 L 1450 299 L 1451 299 L 1460 291 L 1461 291 L 1467 284 L 1467 274 L 1465 272 L 1465 271 L 1463 271 L 1462 270 L 1461 270 L 1458 266 L 1459 265 L 1460 260 L 1458 258 L 1454 258 L 1453 259 L 1451 259 L 1450 260 L 1449 260 L 1448 259 L 1445 258 Z" data-sezione="31" data-area="18927"></path>
            
            <path class="sezione" d="M 226 284 L 227 285 L 227 292 L 225 294 L 224 297 L 222 299 L 221 304 L 219 306 L 216 306 L 213 309 L 213 311 L 211 314 L 211 319 L 210 320 L 210 323 L 209 324 L 209 329 L 208 330 L 208 333 L 206 336 L 205 336 L 204 337 L 201 337 L 198 340 L 198 343 L 197 344 L 197 348 L 196 349 L 196 356 L 197 357 L 197 362 L 200 362 L 201 361 L 203 361 L 204 360 L 208 360 L 209 361 L 211 361 L 212 362 L 213 362 L 217 369 L 217 374 L 218 375 L 220 380 L 228 387 L 228 389 L 230 389 L 233 391 L 235 391 L 236 392 L 238 397 L 241 400 L 242 400 L 244 403 L 251 406 L 252 407 L 252 409 L 251 410 L 251 411 L 247 415 L 245 415 L 244 416 L 240 416 L 235 421 L 228 424 L 223 428 L 223 429 L 222 430 L 222 433 L 223 434 L 220 438 L 220 439 L 211 447 L 206 449 L 206 450 L 204 452 L 204 457 L 205 458 L 205 460 L 201 464 L 201 467 L 198 470 L 195 469 L 193 467 L 193 466 L 192 466 L 191 465 L 191 464 L 188 462 L 188 461 L 189 460 L 189 458 L 190 457 L 190 454 L 189 453 L 189 452 L 184 453 L 182 451 L 178 451 L 177 450 L 175 450 L 174 451 L 170 451 L 169 452 L 168 452 L 168 453 L 167 454 L 164 455 L 158 461 L 155 462 L 154 463 L 154 464 L 149 469 L 149 471 L 146 474 L 146 475 L 145 476 L 144 476 L 141 478 L 139 478 L 138 477 L 137 477 L 137 478 L 135 480 L 117 480 L 112 474 L 112 468 L 111 467 L 111 464 L 110 463 L 110 462 L 109 461 L 106 461 L 105 460 L 105 458 L 107 456 L 108 456 L 108 455 L 109 454 L 109 447 L 107 445 L 104 444 L 102 442 L 102 438 L 100 435 L 101 434 L 100 431 L 101 430 L 102 430 L 106 433 L 111 433 L 112 432 L 113 432 L 113 431 L 114 430 L 114 422 L 115 421 L 115 415 L 117 413 L 117 411 L 118 410 L 118 407 L 116 405 L 116 403 L 108 397 L 108 395 L 110 393 L 111 393 L 114 391 L 115 392 L 117 392 L 118 393 L 119 393 L 121 391 L 121 390 L 122 389 L 122 387 L 121 386 L 119 386 L 118 385 L 117 385 L 116 384 L 115 381 L 113 379 L 113 377 L 112 376 L 112 371 L 110 368 L 110 364 L 107 359 L 107 356 L 108 355 L 108 350 L 105 347 L 105 343 L 102 339 L 102 335 L 100 333 L 100 329 L 101 328 L 102 328 L 104 330 L 107 329 L 109 327 L 109 324 L 110 323 L 110 321 L 111 320 L 111 319 L 113 317 L 114 317 L 115 314 L 117 312 L 118 312 L 119 311 L 121 311 L 122 310 L 123 310 L 127 314 L 128 314 L 129 315 L 129 317 L 130 317 L 131 318 L 131 320 L 132 321 L 132 322 L 134 322 L 137 327 L 142 327 L 143 328 L 144 328 L 148 325 L 149 325 L 152 327 L 154 327 L 155 326 L 158 325 L 162 322 L 177 322 L 178 323 L 178 324 L 177 325 L 177 327 L 183 327 L 184 326 L 185 326 L 187 328 L 189 328 L 190 329 L 191 329 L 195 326 L 196 326 L 198 324 L 198 323 L 196 320 L 196 318 L 197 317 L 197 312 L 201 308 L 201 306 L 207 301 L 207 300 L 212 294 L 212 291 L 215 287 L 215 283 L 216 282 L 219 284 Z" data-sezione="44" data-area="16138"></path>
            <path class="sezione" d="M 264 29 L 266 29 L 267 30 L 269 30 L 270 31 L 270 33 L 271 34 L 271 35 L 273 37 L 273 39 L 274 40 L 274 43 L 275 44 L 281 44 L 282 45 L 288 45 L 289 44 L 290 44 L 290 43 L 293 40 L 294 40 L 296 38 L 296 37 L 297 36 L 297 35 L 299 33 L 300 33 L 303 36 L 303 37 L 304 37 L 305 38 L 305 39 L 310 44 L 312 44 L 312 43 L 313 42 L 313 41 L 315 38 L 316 39 L 316 40 L 321 40 L 322 39 L 327 44 L 328 44 L 330 46 L 330 49 L 332 49 L 335 51 L 338 51 L 339 52 L 341 52 L 342 53 L 343 53 L 345 55 L 345 56 L 347 58 L 347 59 L 349 61 L 350 61 L 351 62 L 351 64 L 353 67 L 353 84 L 354 85 L 354 92 L 355 93 L 355 95 L 353 97 L 353 107 L 354 108 L 354 115 L 353 116 L 353 117 L 350 120 L 350 122 L 349 123 L 349 125 L 348 126 L 348 127 L 347 128 L 346 128 L 346 129 L 345 130 L 345 131 L 343 133 L 343 134 L 341 136 L 341 137 L 340 138 L 340 139 L 338 141 L 338 142 L 337 143 L 337 146 L 336 147 L 336 148 L 334 150 L 334 151 L 330 155 L 330 156 L 329 157 L 329 162 L 331 165 L 331 172 L 332 173 L 332 179 L 333 180 L 333 181 L 334 182 L 334 183 L 335 184 L 335 185 L 336 186 L 337 186 L 339 189 L 339 191 L 336 193 L 335 193 L 334 192 L 335 191 L 335 190 L 334 189 L 334 188 L 330 188 L 329 189 L 328 188 L 327 188 L 326 189 L 324 189 L 323 190 L 321 190 L 320 189 L 319 189 L 317 187 L 317 184 L 316 183 L 316 182 L 315 182 L 312 179 L 312 178 L 311 177 L 308 177 L 307 178 L 306 177 L 297 177 L 294 174 L 290 174 L 288 176 L 286 176 L 285 177 L 283 177 L 281 179 L 276 179 L 275 180 L 264 180 L 263 179 L 266 176 L 266 175 L 268 173 L 268 171 L 267 171 L 265 169 L 263 169 L 262 170 L 260 168 L 260 166 L 258 164 L 258 160 L 256 158 L 256 157 L 255 156 L 254 156 L 252 154 L 252 153 L 249 151 L 249 150 L 247 148 L 247 147 L 241 141 L 240 141 L 239 142 L 237 142 L 236 141 L 235 141 L 234 142 L 232 140 L 232 138 L 231 137 L 230 137 L 227 135 L 227 134 L 226 133 L 226 132 L 225 132 L 224 133 L 223 133 L 222 134 L 221 134 L 218 132 L 215 132 L 213 130 L 213 129 L 212 128 L 213 127 L 215 127 L 218 124 L 218 122 L 219 121 L 219 119 L 218 118 L 218 117 L 216 114 L 216 109 L 217 108 L 217 107 L 219 105 L 219 104 L 223 100 L 223 96 L 225 93 L 225 88 L 226 87 L 226 83 L 228 81 L 228 78 L 229 77 L 229 76 L 231 74 L 231 72 L 233 70 L 233 69 L 234 68 L 234 67 L 236 65 L 236 63 L 237 62 L 237 60 L 238 59 L 238 58 L 244 52 L 244 51 L 246 49 L 246 48 L 247 47 L 247 45 L 249 43 L 249 42 L 250 41 L 253 41 L 255 39 L 256 39 L 257 38 L 257 37 L 258 36 L 259 36 L 261 34 L 261 33 L 262 32 L 262 31 Z" data-sezione="45" data-area="15208"></path>
            <path class="sezione" d="M 335 23 L 336 23 L 338 25 L 339 25 L 340 26 L 339 27 L 339 29 L 341 29 L 344 26 L 344 25 L 345 24 L 346 25 L 348 25 L 349 24 L 351 24 L 352 25 L 355 25 L 356 24 L 356 22 L 357 21 L 357 20 L 358 19 L 360 19 L 361 20 L 361 22 L 362 23 L 362 28 L 360 31 L 360 32 L 361 33 L 361 37 L 362 38 L 360 40 L 360 48 L 363 51 L 364 51 L 366 53 L 368 53 L 369 54 L 384 54 L 387 52 L 388 52 L 389 53 L 392 53 L 393 52 L 394 52 L 395 53 L 397 53 L 398 54 L 399 54 L 401 56 L 402 56 L 404 58 L 404 60 L 405 61 L 405 62 L 407 64 L 407 66 L 410 69 L 410 71 L 411 72 L 411 73 L 412 74 L 412 76 L 413 77 L 413 78 L 412 79 L 412 84 L 414 87 L 414 94 L 415 95 L 415 96 L 414 97 L 414 99 L 413 100 L 413 102 L 414 103 L 414 104 L 418 108 L 419 108 L 420 109 L 420 110 L 423 110 L 424 111 L 425 111 L 430 116 L 431 116 L 433 118 L 434 118 L 435 119 L 438 120 L 440 122 L 441 122 L 446 127 L 446 130 L 447 131 L 447 134 L 449 137 L 449 143 L 450 144 L 450 149 L 452 152 L 452 157 L 453 158 L 453 167 L 454 168 L 453 169 L 453 171 L 451 174 L 451 176 L 450 177 L 450 181 L 449 182 L 449 189 L 448 190 L 448 192 L 450 195 L 450 197 L 447 199 L 445 199 L 444 200 L 442 200 L 441 201 L 439 201 L 437 203 L 432 203 L 431 204 L 430 204 L 428 206 L 425 206 L 424 207 L 424 209 L 425 209 L 426 210 L 428 210 L 429 211 L 429 212 L 430 212 L 432 214 L 432 216 L 422 224 L 423 227 L 422 228 L 422 231 L 421 232 L 420 231 L 420 229 L 419 228 L 419 220 L 416 218 L 414 218 L 413 219 L 411 219 L 410 218 L 409 218 L 408 217 L 408 215 L 406 213 L 406 212 L 405 211 L 405 209 L 404 208 L 402 208 L 401 209 L 398 209 L 396 211 L 393 212 L 388 217 L 386 217 L 383 219 L 376 219 L 375 220 L 372 220 L 370 218 L 370 216 L 369 216 L 367 214 L 363 214 L 362 213 L 361 213 L 359 210 L 353 208 L 352 207 L 352 206 L 349 203 L 349 199 L 343 199 L 342 198 L 343 197 L 343 193 L 341 191 L 341 188 L 340 187 L 340 186 L 338 184 L 337 184 L 336 183 L 336 182 L 335 181 L 335 179 L 333 177 L 333 164 L 331 162 L 331 158 L 332 157 L 332 156 L 336 152 L 336 151 L 338 148 L 338 146 L 339 145 L 339 143 L 343 138 L 344 135 L 345 134 L 346 134 L 346 132 L 349 129 L 349 128 L 351 126 L 351 123 L 352 122 L 352 120 L 353 119 L 354 119 L 354 118 L 356 116 L 356 108 L 355 107 L 355 105 L 354 104 L 354 101 L 355 100 L 355 98 L 357 95 L 357 92 L 356 91 L 356 85 L 355 84 L 355 82 L 354 81 L 354 80 L 355 79 L 355 69 L 354 68 L 354 64 L 353 63 L 352 60 L 351 59 L 350 59 L 348 57 L 347 54 L 344 51 L 342 51 L 341 50 L 338 50 L 335 48 L 333 48 L 332 47 L 332 46 L 330 44 L 330 43 L 329 43 L 327 41 L 327 40 L 326 40 L 324 38 L 324 36 L 325 35 L 326 32 Z" data-sezione="19" data-area="14924"></path>
            <path class="sezione" d="M 273 225 L 274 226 L 276 226 L 279 229 L 279 230 L 282 233 L 282 234 L 286 238 L 287 238 L 290 240 L 290 241 L 293 246 L 293 250 L 292 251 L 287 250 L 285 248 L 285 246 L 284 245 L 284 243 L 283 242 L 280 242 L 278 244 L 278 245 L 275 247 L 275 253 L 276 253 L 278 255 L 280 255 L 282 257 L 281 262 L 279 264 L 279 270 L 278 271 L 278 272 L 279 273 L 284 273 L 286 271 L 287 271 L 287 270 L 289 268 L 291 268 L 293 266 L 295 266 L 301 260 L 302 260 L 304 258 L 306 258 L 307 259 L 310 259 L 311 260 L 313 260 L 314 261 L 314 264 L 316 266 L 315 267 L 314 267 L 313 268 L 313 269 L 312 270 L 311 270 L 311 271 L 309 273 L 308 273 L 302 278 L 302 280 L 303 281 L 303 286 L 304 287 L 304 290 L 302 292 L 302 293 L 299 295 L 299 296 L 301 299 L 300 300 L 300 304 L 302 306 L 302 307 L 305 309 L 305 311 L 302 313 L 302 314 L 303 315 L 303 317 L 302 318 L 302 322 L 300 324 L 299 324 L 294 327 L 292 333 L 289 336 L 289 337 L 288 338 L 288 340 L 290 343 L 289 344 L 289 345 L 288 346 L 284 346 L 279 351 L 277 351 L 276 350 L 271 350 L 270 351 L 266 351 L 265 350 L 263 350 L 262 351 L 262 356 L 260 358 L 260 359 L 257 364 L 257 370 L 258 371 L 258 373 L 259 374 L 259 378 L 256 381 L 256 383 L 255 384 L 255 398 L 254 399 L 254 402 L 252 404 L 250 404 L 248 402 L 246 402 L 239 395 L 239 394 L 238 393 L 238 391 L 237 390 L 236 390 L 231 387 L 234 384 L 234 380 L 232 378 L 229 378 L 229 381 L 227 383 L 226 383 L 221 378 L 221 377 L 219 374 L 219 371 L 218 370 L 218 366 L 214 360 L 213 360 L 212 359 L 201 359 L 200 360 L 199 359 L 199 356 L 198 355 L 198 349 L 199 348 L 199 342 L 202 339 L 203 339 L 204 338 L 207 338 L 209 336 L 209 335 L 210 334 L 210 328 L 211 327 L 211 325 L 212 324 L 212 317 L 214 314 L 214 312 L 217 308 L 220 308 L 223 305 L 223 302 L 226 298 L 226 296 L 229 292 L 229 286 L 230 285 L 230 284 L 227 282 L 220 282 L 219 281 L 216 281 L 215 280 L 213 280 L 213 281 L 214 282 L 214 284 L 210 291 L 210 293 L 209 294 L 209 295 L 204 300 L 204 301 L 203 302 L 200 303 L 200 305 L 199 306 L 199 307 L 196 310 L 196 311 L 195 312 L 195 317 L 194 318 L 195 323 L 191 327 L 190 327 L 189 326 L 188 326 L 187 325 L 187 324 L 183 320 L 183 315 L 182 314 L 182 309 L 183 308 L 183 306 L 182 305 L 182 303 L 180 301 L 180 300 L 179 300 L 178 299 L 178 298 L 175 295 L 175 291 L 176 290 L 176 287 L 175 286 L 175 284 L 169 278 L 169 276 L 167 273 L 167 268 L 165 266 L 166 265 L 166 261 L 167 260 L 167 258 L 168 257 L 170 257 L 171 256 L 172 257 L 172 258 L 173 258 L 174 259 L 174 260 L 176 260 L 177 259 L 177 258 L 180 255 L 181 255 L 185 250 L 186 250 L 187 249 L 193 249 L 195 247 L 196 247 L 199 244 L 199 243 L 198 242 L 201 239 L 203 239 L 205 241 L 207 241 L 208 242 L 211 242 L 213 239 L 216 242 L 217 242 L 218 243 L 221 244 L 223 246 L 226 247 L 230 251 L 232 251 L 234 249 L 235 249 L 243 243 L 243 242 L 242 241 L 242 240 L 243 239 L 245 239 L 246 238 L 247 238 L 249 236 L 252 235 L 254 233 L 256 233 L 258 231 L 261 231 L 262 230 L 264 230 L 267 228 L 269 228 Z" data-sezione="43" data-area="13399"></path>
            <path class="sezione" d="M 1371 412 L 1372 411 L 1373 411 L 1375 413 L 1376 413 L 1379 415 L 1381 415 L 1382 416 L 1384 416 L 1387 418 L 1389 418 L 1390 419 L 1395 419 L 1395 418 L 1397 416 L 1397 413 L 1398 412 L 1398 411 L 1400 409 L 1400 406 L 1401 405 L 1402 405 L 1404 407 L 1405 407 L 1407 409 L 1409 409 L 1410 408 L 1416 408 L 1417 407 L 1419 407 L 1422 405 L 1424 405 L 1425 406 L 1426 406 L 1427 407 L 1428 407 L 1429 408 L 1430 408 L 1431 409 L 1432 409 L 1434 411 L 1435 411 L 1437 413 L 1438 413 L 1439 414 L 1439 415 L 1442 418 L 1442 427 L 1444 429 L 1444 430 L 1445 430 L 1447 432 L 1462 432 L 1463 431 L 1466 431 L 1467 430 L 1470 430 L 1471 429 L 1474 429 L 1475 428 L 1476 428 L 1477 429 L 1483 429 L 1484 430 L 1488 430 L 1489 431 L 1493 431 L 1494 432 L 1499 432 L 1500 433 L 1501 433 L 1502 434 L 1503 434 L 1504 435 L 1505 435 L 1507 437 L 1508 437 L 1511 440 L 1512 440 L 1513 441 L 1513 445 L 1511 447 L 1511 448 L 1509 450 L 1509 451 L 1506 454 L 1506 455 L 1504 457 L 1504 458 L 1507 461 L 1509 461 L 1512 463 L 1512 469 L 1515 469 L 1516 470 L 1519 470 L 1522 472 L 1522 481 L 1521 482 L 1520 482 L 1519 483 L 1518 483 L 1518 487 L 1519 488 L 1519 489 L 1522 491 L 1522 494 L 1523 495 L 1523 499 L 1519 503 L 1519 508 L 1517 510 L 1517 512 L 1520 514 L 1520 534 L 1521 535 L 1521 537 L 1520 538 L 1515 538 L 1514 537 L 1512 537 L 1511 536 L 1508 536 L 1507 535 L 1504 535 L 1503 534 L 1500 534 L 1499 533 L 1495 533 L 1492 531 L 1488 531 L 1487 530 L 1484 530 L 1483 529 L 1481 529 L 1480 528 L 1477 528 L 1476 527 L 1474 527 L 1473 526 L 1470 526 L 1469 525 L 1466 525 L 1465 524 L 1463 524 L 1462 523 L 1460 523 L 1459 522 L 1455 522 L 1452 520 L 1449 520 L 1448 519 L 1446 519 L 1443 517 L 1441 517 L 1438 515 L 1436 515 L 1435 514 L 1433 514 L 1432 513 L 1431 513 L 1430 512 L 1429 512 L 1428 511 L 1427 511 L 1424 509 L 1422 509 L 1421 508 L 1420 508 L 1417 506 L 1415 506 L 1413 504 L 1411 504 L 1410 503 L 1409 503 L 1406 501 L 1404 501 L 1403 500 L 1402 500 L 1401 499 L 1400 499 L 1399 498 L 1398 498 L 1394 494 L 1394 492 L 1393 491 L 1393 489 L 1392 488 L 1392 482 L 1391 481 L 1391 477 L 1390 476 L 1390 473 L 1389 472 L 1389 469 L 1388 468 L 1388 467 L 1387 467 L 1386 466 L 1385 466 L 1383 464 L 1382 464 L 1381 463 L 1380 463 L 1377 461 L 1370 461 L 1368 458 L 1368 455 L 1367 454 L 1367 451 L 1365 448 L 1365 445 L 1364 444 L 1362 444 L 1361 443 L 1360 443 L 1359 442 L 1358 442 L 1356 440 L 1357 439 L 1357 438 L 1360 436 L 1360 435 L 1361 434 L 1361 433 L 1362 432 L 1362 431 L 1363 430 L 1363 429 L 1364 428 L 1364 427 L 1365 426 L 1365 425 L 1367 422 L 1367 420 L 1368 419 L 1368 418 L 1369 417 L 1369 416 L 1370 415 L 1370 414 L 1371 413 Z" data-sezione="30" data-area="13374"></path>
            <path class="sezione" d="M 953 185 L 955 181 L 959 177 L 964 176 L 973 171 L 977 171 L 979 172 L 983 167 L 986 166 L 988 164 L 988 161 L 989 160 L 999 158 L 1006 153 L 1010 151 L 1013 151 L 1014 150 L 1018 152 L 1019 155 L 1024 161 L 1031 161 L 1034 159 L 1036 159 L 1040 162 L 1046 162 L 1050 159 L 1053 159 L 1063 169 L 1065 169 L 1067 168 L 1067 163 L 1066 162 L 1067 161 L 1069 161 L 1071 162 L 1074 166 L 1074 169 L 1079 174 L 1081 174 L 1088 180 L 1088 183 L 1089 184 L 1089 193 L 1090 195 L 1094 198 L 1096 198 L 1107 204 L 1111 204 L 1113 202 L 1117 200 L 1119 200 L 1120 199 L 1124 199 L 1125 198 L 1127 198 L 1128 199 L 1134 199 L 1135 198 L 1140 198 L 1142 196 L 1143 196 L 1145 198 L 1145 203 L 1144 205 L 1142 206 L 1142 208 L 1144 212 L 1149 215 L 1151 215 L 1156 210 L 1159 209 L 1161 207 L 1165 207 L 1166 208 L 1171 209 L 1173 211 L 1173 213 L 1174 214 L 1173 215 L 1173 218 L 1172 220 L 1170 222 L 1168 222 L 1168 228 L 1173 231 L 1179 231 L 1180 232 L 1184 232 L 1185 231 L 1191 231 L 1192 232 L 1192 235 L 1191 236 L 1191 240 L 1195 245 L 1195 246 L 1198 249 L 1198 250 L 1201 253 L 1201 254 L 1206 259 L 1206 260 L 1208 260 L 1220 266 L 1217 270 L 1217 271 L 1214 274 L 1208 274 L 1206 276 L 1205 276 L 1203 279 L 1201 280 L 1201 286 L 1203 288 L 1203 292 L 1196 300 L 1192 300 L 1189 303 L 1187 302 L 1185 302 L 1184 301 L 1182 301 L 1181 300 L 1167 300 L 1166 302 L 1166 304 L 1165 305 L 1153 305 L 1153 311 L 1151 314 L 1145 314 L 1144 313 L 1145 312 L 1145 303 L 1150 299 L 1160 299 L 1164 297 L 1165 296 L 1165 290 L 1159 283 L 1159 281 L 1158 279 L 1155 279 L 1153 280 L 1153 286 L 1152 288 L 1150 289 L 1147 292 L 1147 293 L 1144 295 L 1143 297 L 1141 298 L 1140 297 L 1140 289 L 1139 288 L 1139 283 L 1142 277 L 1144 277 L 1148 275 L 1147 264 L 1152 259 L 1152 255 L 1146 249 L 1142 249 L 1140 253 L 1139 254 L 1138 253 L 1138 243 L 1137 242 L 1137 239 L 1138 238 L 1138 233 L 1137 232 L 1127 232 L 1120 236 L 1118 236 L 1116 235 L 1115 233 L 1114 233 L 1105 224 L 1104 224 L 1102 222 L 1098 222 L 1096 220 L 1093 219 L 1089 215 L 1089 214 L 1087 213 L 1082 214 L 1082 215 L 1080 217 L 1067 217 L 1064 213 L 1064 206 L 1065 205 L 1065 201 L 1060 195 L 1060 192 L 1059 190 L 1054 190 L 1053 191 L 1047 191 L 1042 186 L 1042 184 L 1041 183 L 1041 180 L 1039 180 L 1038 179 L 1037 179 L 1027 187 L 1024 184 L 1017 184 L 1016 185 L 1014 185 L 1011 188 L 998 188 L 988 193 L 983 193 L 982 192 L 979 192 L 978 193 L 974 193 L 973 192 L 966 191 L 965 192 L 962 192 L 961 193 L 958 193 L 957 194 L 955 194 L 953 190 Z" data-sezione="13" data-area="10147"></path>
            <path class="sezione" d="M 1249 391 L 1248 392 L 1248 393 L 1245 396 L 1245 400 L 1246 401 L 1246 405 L 1245 406 L 1244 406 L 1243 405 L 1241 405 L 1240 404 L 1231 404 L 1230 405 L 1229 405 L 1227 407 L 1227 413 L 1228 414 L 1227 415 L 1224 416 L 1222 418 L 1222 419 L 1221 420 L 1220 423 L 1215 426 L 1213 426 L 1212 427 L 1211 427 L 1210 428 L 1208 428 L 1207 429 L 1204 429 L 1203 430 L 1200 430 L 1199 431 L 1192 431 L 1191 432 L 1185 432 L 1184 433 L 1182 433 L 1181 434 L 1177 434 L 1176 435 L 1173 435 L 1172 436 L 1169 436 L 1168 437 L 1164 437 L 1161 439 L 1157 439 L 1156 440 L 1152 440 L 1151 441 L 1149 441 L 1148 442 L 1144 442 L 1143 443 L 1140 443 L 1139 444 L 1138 444 L 1135 449 L 1135 451 L 1136 452 L 1136 456 L 1133 461 L 1132 461 L 1130 463 L 1129 463 L 1128 464 L 1123 464 L 1121 466 L 1120 466 L 1115 469 L 1113 469 L 1112 470 L 1112 474 L 1111 475 L 1110 475 L 1109 476 L 1108 476 L 1103 479 L 1101 479 L 1100 480 L 1098 480 L 1096 482 L 1093 483 L 1093 484 L 1092 485 L 1091 485 L 1091 497 L 1089 499 L 1088 502 L 1086 504 L 1086 505 L 1085 506 L 1085 511 L 1084 512 L 1084 515 L 1083 516 L 1083 520 L 1082 521 L 1082 524 L 1081 525 L 1081 529 L 1080 530 L 1080 535 L 1079 536 L 1079 538 L 1078 539 L 1078 543 L 1076 545 L 1070 545 L 1069 546 L 1042 546 L 1041 545 L 1041 544 L 1040 543 L 1040 541 L 1039 540 L 1041 538 L 1044 537 L 1044 536 L 1046 534 L 1046 533 L 1048 531 L 1048 530 L 1055 523 L 1055 521 L 1056 520 L 1056 517 L 1054 515 L 1054 512 L 1053 511 L 1053 508 L 1052 507 L 1052 501 L 1051 500 L 1051 495 L 1050 494 L 1050 492 L 1049 491 L 1049 488 L 1048 487 L 1047 484 L 1050 482 L 1055 482 L 1060 477 L 1060 476 L 1061 475 L 1062 475 L 1066 471 L 1072 469 L 1076 464 L 1076 462 L 1077 461 L 1078 461 L 1078 460 L 1083 455 L 1083 454 L 1084 453 L 1085 453 L 1087 451 L 1088 451 L 1090 449 L 1091 449 L 1094 447 L 1096 447 L 1097 446 L 1102 446 L 1108 440 L 1110 440 L 1111 439 L 1114 438 L 1114 435 L 1113 434 L 1113 429 L 1112 428 L 1112 424 L 1111 423 L 1111 421 L 1110 420 L 1110 416 L 1109 415 L 1109 413 L 1108 412 L 1108 407 L 1107 406 L 1107 402 L 1106 401 L 1106 399 L 1105 398 L 1105 396 L 1106 395 L 1108 395 L 1109 394 L 1114 394 L 1115 393 L 1117 393 L 1118 392 L 1123 392 L 1124 391 L 1128 391 L 1129 390 L 1132 390 L 1133 389 L 1138 389 L 1139 388 L 1141 388 L 1142 387 L 1146 387 L 1147 386 L 1152 386 L 1153 385 L 1154 385 L 1154 383 L 1153 382 L 1153 372 L 1154 371 L 1157 371 L 1158 372 L 1158 373 L 1160 375 L 1162 375 L 1164 377 L 1164 380 L 1165 381 L 1166 384 L 1191 384 L 1192 383 L 1196 383 L 1197 384 L 1206 384 L 1207 385 L 1207 388 L 1208 389 L 1209 389 L 1210 390 L 1213 390 L 1214 389 L 1216 389 L 1217 390 L 1217 391 L 1218 392 L 1218 396 L 1217 397 L 1217 400 L 1220 403 L 1221 403 L 1225 398 L 1225 396 L 1226 395 L 1226 393 L 1227 392 L 1228 392 L 1232 388 L 1233 388 L 1234 387 L 1236 387 L 1237 386 L 1242 386 Z" data-sezione="8" data-area="10098"></path>
            <path class="sezione" d="M 1293 540 L 1295 538 L 1295 536 L 1296 535 L 1296 534 L 1297 533 L 1297 532 L 1298 531 L 1298 530 L 1299 529 L 1299 528 L 1301 525 L 1301 523 L 1303 521 L 1303 520 L 1307 516 L 1308 516 L 1309 515 L 1309 514 L 1311 511 L 1311 509 L 1312 508 L 1312 507 L 1314 504 L 1314 502 L 1316 499 L 1316 497 L 1317 496 L 1317 494 L 1319 492 L 1319 490 L 1320 489 L 1320 486 L 1321 485 L 1321 484 L 1325 480 L 1326 480 L 1327 479 L 1329 479 L 1330 480 L 1335 480 L 1336 479 L 1338 479 L 1339 478 L 1353 478 L 1354 477 L 1357 477 L 1360 475 L 1363 475 L 1364 474 L 1366 474 L 1367 475 L 1368 475 L 1381 488 L 1382 488 L 1385 491 L 1386 491 L 1388 493 L 1389 493 L 1392 496 L 1393 496 L 1397 500 L 1398 500 L 1399 501 L 1401 501 L 1402 502 L 1403 502 L 1404 503 L 1405 503 L 1408 505 L 1410 505 L 1412 507 L 1414 507 L 1415 508 L 1416 508 L 1417 509 L 1418 509 L 1419 510 L 1420 510 L 1423 512 L 1425 512 L 1426 513 L 1428 513 L 1429 514 L 1430 514 L 1431 515 L 1432 515 L 1433 516 L 1434 516 L 1437 518 L 1439 518 L 1440 519 L 1442 519 L 1443 520 L 1445 520 L 1446 521 L 1449 521 L 1452 523 L 1455 523 L 1456 524 L 1458 524 L 1459 525 L 1462 525 L 1463 526 L 1466 526 L 1467 527 L 1469 527 L 1470 528 L 1473 528 L 1474 529 L 1477 529 L 1480 531 L 1483 531 L 1484 532 L 1487 532 L 1488 533 L 1490 533 L 1491 534 L 1494 534 L 1497 536 L 1501 536 L 1502 537 L 1506 537 L 1507 538 L 1510 538 L 1511 539 L 1515 539 L 1516 540 L 1543 540 L 1544 541 L 1544 543 L 1546 546 L 1546 548 L 1547 549 L 1547 550 L 1546 551 L 1294 551 L 1293 550 L 1293 548 L 1294 547 L 1294 546 L 1293 545 Z" data-sezione="47" data-area="9996"></path>
            <path class="sezione" d="M 457 298 L 457 299 L 458 300 L 458 302 L 459 303 L 459 304 L 460 305 L 460 306 L 461 307 L 461 308 L 462 309 L 462 310 L 463 311 L 461 313 L 458 313 L 458 318 L 460 320 L 460 321 L 459 322 L 457 322 L 456 323 L 455 323 L 451 327 L 451 328 L 450 329 L 448 329 L 447 330 L 445 330 L 444 331 L 440 331 L 437 334 L 437 335 L 438 336 L 438 338 L 437 339 L 437 344 L 439 344 L 440 343 L 442 345 L 442 346 L 439 349 L 439 352 L 437 354 L 436 354 L 436 360 L 437 361 L 438 361 L 442 365 L 442 366 L 441 367 L 440 367 L 439 368 L 438 368 L 434 372 L 430 372 L 429 371 L 423 371 L 422 372 L 421 372 L 420 373 L 420 374 L 419 375 L 418 375 L 413 380 L 412 380 L 411 381 L 410 381 L 408 383 L 394 383 L 393 384 L 392 384 L 390 382 L 385 382 L 384 383 L 381 380 L 380 380 L 379 379 L 375 379 L 374 378 L 373 378 L 372 379 L 370 379 L 367 382 L 367 383 L 363 387 L 363 393 L 362 394 L 361 394 L 361 395 L 360 396 L 358 396 L 357 397 L 352 397 L 351 398 L 350 398 L 349 399 L 348 399 L 347 400 L 343 400 L 339 396 L 339 394 L 338 393 L 338 391 L 337 391 L 335 389 L 335 372 L 334 371 L 334 353 L 335 352 L 335 351 L 336 350 L 336 348 L 338 346 L 338 344 L 339 343 L 339 342 L 340 341 L 340 322 L 339 321 L 339 318 L 338 317 L 338 312 L 337 311 L 337 307 L 338 306 L 338 305 L 340 303 L 341 303 L 342 302 L 343 302 L 344 303 L 346 303 L 347 304 L 358 304 L 359 303 L 366 303 L 368 305 L 368 307 L 369 308 L 369 317 L 368 318 L 368 321 L 370 321 L 371 320 L 372 320 L 373 319 L 374 319 L 378 315 L 378 314 L 379 313 L 379 300 L 380 299 L 380 296 L 381 295 L 381 293 L 383 291 L 383 290 L 385 288 L 385 287 L 386 286 L 386 284 L 387 283 L 387 282 L 388 281 L 388 280 L 389 279 L 389 278 L 390 277 L 399 277 L 400 276 L 402 276 L 407 281 L 408 281 L 411 284 L 412 284 L 413 285 L 415 285 L 417 287 L 419 287 L 420 288 L 421 288 L 422 289 L 423 289 L 424 290 L 427 290 L 428 291 L 429 291 L 430 292 L 433 292 L 434 293 L 438 293 L 439 294 L 440 294 L 441 295 L 445 295 L 446 296 L 455 296 Z" data-sezione="47" data-area="9728"></path>
            <path class="sezione" d="M 1140 376 L 1140 380 L 1141 381 L 1141 384 L 1142 385 L 1141 386 L 1138 386 L 1137 387 L 1135 387 L 1134 388 L 1129 388 L 1128 389 L 1123 389 L 1122 390 L 1120 390 L 1119 391 L 1114 391 L 1113 392 L 1108 392 L 1107 393 L 1105 393 L 1104 394 L 1103 394 L 1103 397 L 1104 398 L 1104 402 L 1105 403 L 1105 406 L 1106 407 L 1106 410 L 1107 411 L 1107 416 L 1109 419 L 1109 424 L 1110 425 L 1106 429 L 1105 429 L 1103 431 L 1102 431 L 1099 434 L 1098 434 L 1097 435 L 1095 435 L 1094 436 L 1089 436 L 1087 434 L 1087 431 L 1086 430 L 1086 425 L 1082 421 L 1080 421 L 1079 420 L 1074 420 L 1073 419 L 1071 419 L 1070 418 L 1065 418 L 1064 417 L 1060 417 L 1059 416 L 1053 416 L 1052 415 L 1050 415 L 1049 416 L 1047 416 L 1045 418 L 1044 418 L 1043 419 L 1040 420 L 1034 426 L 1033 426 L 1025 434 L 1024 434 L 1024 435 L 1022 437 L 1021 437 L 1019 439 L 1018 439 L 1017 440 L 1016 440 L 1015 441 L 1014 441 L 1013 442 L 1012 442 L 1011 443 L 1010 443 L 1009 444 L 1006 445 L 1006 446 L 1005 447 L 998 447 L 996 449 L 996 450 L 993 453 L 993 454 L 991 456 L 988 456 L 988 457 L 987 458 L 986 461 L 984 463 L 982 463 L 981 464 L 979 464 L 978 463 L 973 463 L 972 462 L 972 458 L 973 457 L 973 450 L 974 449 L 974 446 L 973 445 L 973 441 L 974 440 L 974 439 L 975 438 L 976 438 L 976 437 L 978 435 L 978 434 L 981 431 L 981 428 L 982 427 L 982 422 L 984 419 L 984 416 L 985 415 L 985 410 L 984 410 L 983 409 L 982 409 L 979 407 L 977 407 L 976 406 L 975 406 L 972 404 L 970 404 L 969 403 L 968 403 L 967 402 L 964 401 L 962 399 L 962 385 L 963 384 L 966 384 L 969 381 L 970 381 L 970 380 L 971 379 L 971 377 L 972 376 L 973 373 L 976 370 L 979 370 L 983 374 L 983 377 L 984 378 L 984 382 L 986 385 L 986 388 L 987 389 L 987 391 L 989 394 L 990 394 L 991 395 L 996 395 L 997 396 L 999 396 L 1000 397 L 1001 397 L 1004 399 L 1006 399 L 1007 400 L 1016 400 L 1016 399 L 1017 398 L 1017 396 L 1018 395 L 1018 393 L 1019 392 L 1019 382 L 1021 380 L 1022 380 L 1023 379 L 1025 379 L 1026 378 L 1029 378 L 1032 376 L 1042 376 L 1045 378 L 1049 378 L 1050 379 L 1051 379 L 1052 378 L 1057 378 L 1058 377 L 1059 377 L 1061 375 L 1062 375 L 1062 374 L 1063 373 L 1064 373 L 1064 372 L 1069 368 L 1073 368 L 1074 367 L 1077 367 L 1078 366 L 1080 366 L 1081 365 L 1086 365 L 1091 360 L 1093 360 L 1094 361 L 1097 362 L 1101 366 L 1101 368 L 1102 369 L 1102 373 L 1100 375 L 1097 375 L 1096 376 L 1096 377 L 1097 378 L 1098 378 L 1101 380 L 1104 380 L 1105 379 L 1111 379 L 1112 378 L 1118 378 L 1119 377 L 1122 377 L 1123 376 L 1129 376 L 1130 375 L 1135 375 L 1136 374 L 1138 374 Z" data-sezione="41" data-area="7774"></path>
            <path class="sezione" d="M 1524 208 L 1526 208 L 1527 209 L 1529 209 L 1530 210 L 1533 210 L 1534 211 L 1536 211 L 1537 212 L 1539 212 L 1542 215 L 1543 215 L 1546 218 L 1547 218 L 1550 221 L 1551 221 L 1553 223 L 1554 223 L 1558 227 L 1559 227 L 1562 230 L 1563 230 L 1565 232 L 1566 232 L 1568 234 L 1569 234 L 1572 237 L 1573 237 L 1576 240 L 1577 240 L 1582 244 L 1587 244 L 1588 243 L 1596 243 L 1597 242 L 1603 242 L 1604 241 L 1604 240 L 1607 237 L 1609 237 L 1610 238 L 1611 238 L 1612 239 L 1613 239 L 1616 241 L 1618 241 L 1619 242 L 1621 242 L 1624 244 L 1628 244 L 1628 243 L 1631 240 L 1631 239 L 1633 237 L 1634 238 L 1634 239 L 1636 241 L 1636 242 L 1638 244 L 1639 244 L 1641 246 L 1642 246 L 1643 245 L 1645 248 L 1647 248 L 1650 250 L 1650 253 L 1651 254 L 1651 255 L 1654 258 L 1654 259 L 1655 260 L 1655 262 L 1654 263 L 1653 263 L 1651 265 L 1650 265 L 1647 268 L 1646 268 L 1644 270 L 1642 270 L 1641 271 L 1640 271 L 1637 273 L 1629 273 L 1629 275 L 1630 276 L 1630 279 L 1631 280 L 1631 281 L 1628 284 L 1627 284 L 1627 289 L 1628 290 L 1628 293 L 1633 298 L 1638 298 L 1640 296 L 1641 296 L 1644 293 L 1646 293 L 1647 292 L 1658 292 L 1659 291 L 1661 291 L 1662 290 L 1665 290 L 1666 289 L 1668 291 L 1668 292 L 1670 294 L 1670 295 L 1671 295 L 1672 296 L 1673 299 L 1675 301 L 1675 314 L 1674 315 L 1674 320 L 1673 321 L 1673 330 L 1674 330 L 1678 334 L 1678 335 L 1679 336 L 1679 347 L 1681 349 L 1683 349 L 1684 350 L 1685 350 L 1687 352 L 1687 353 L 1688 354 L 1686 356 L 1685 355 L 1683 355 L 1682 356 L 1682 357 L 1681 358 L 1681 361 L 1680 362 L 1680 364 L 1679 365 L 1679 370 L 1678 371 L 1673 371 L 1672 372 L 1663 372 L 1661 370 L 1660 370 L 1657 367 L 1657 366 L 1655 364 L 1655 363 L 1654 362 L 1654 361 L 1652 359 L 1652 358 L 1650 356 L 1649 356 L 1646 353 L 1646 343 L 1644 340 L 1641 340 L 1639 338 L 1639 337 L 1638 336 L 1638 331 L 1635 330 L 1632 327 L 1632 326 L 1630 324 L 1630 323 L 1622 315 L 1620 315 L 1619 314 L 1615 314 L 1614 313 L 1606 313 L 1603 310 L 1602 307 L 1603 306 L 1603 304 L 1604 303 L 1604 302 L 1602 300 L 1601 300 L 1598 297 L 1596 297 L 1594 295 L 1594 293 L 1593 292 L 1593 286 L 1590 283 L 1589 283 L 1584 278 L 1583 278 L 1582 277 L 1582 276 L 1581 276 L 1578 273 L 1577 273 L 1572 268 L 1572 265 L 1571 264 L 1571 262 L 1569 259 L 1569 256 L 1568 255 L 1568 254 L 1566 252 L 1565 252 L 1564 251 L 1557 251 L 1556 250 L 1554 250 L 1553 249 L 1551 249 L 1548 246 L 1548 245 L 1547 244 L 1547 242 L 1545 240 L 1545 238 L 1544 237 L 1543 234 L 1539 230 L 1538 230 L 1537 229 L 1537 228 L 1536 227 L 1535 227 L 1534 226 L 1534 225 L 1529 220 L 1528 217 L 1526 215 L 1525 212 L 1523 210 L 1523 209 Z" data-sezione="51" data-area="7716"></path>
            <path class="sezione" d="M 1270 301 L 1272 299 L 1275 299 L 1276 298 L 1285 298 L 1286 297 L 1294 297 L 1295 296 L 1300 296 L 1301 295 L 1306 295 L 1309 293 L 1312 293 L 1313 292 L 1317 292 L 1318 291 L 1320 291 L 1321 290 L 1325 290 L 1328 287 L 1328 286 L 1329 285 L 1330 285 L 1330 284 L 1333 281 L 1333 280 L 1337 276 L 1338 276 L 1340 274 L 1341 274 L 1342 273 L 1343 273 L 1346 271 L 1348 271 L 1350 269 L 1352 269 L 1355 266 L 1356 266 L 1358 264 L 1359 264 L 1360 263 L 1364 263 L 1365 262 L 1369 262 L 1370 261 L 1371 261 L 1372 262 L 1372 266 L 1373 267 L 1373 269 L 1375 272 L 1375 274 L 1378 277 L 1378 278 L 1380 280 L 1380 281 L 1381 282 L 1378 285 L 1378 291 L 1382 291 L 1383 292 L 1387 292 L 1388 293 L 1392 293 L 1395 295 L 1404 295 L 1406 293 L 1408 293 L 1409 292 L 1410 293 L 1411 293 L 1413 296 L 1415 296 L 1417 298 L 1417 316 L 1418 317 L 1418 320 L 1420 323 L 1420 326 L 1421 327 L 1421 331 L 1422 332 L 1422 334 L 1423 335 L 1423 340 L 1424 341 L 1424 342 L 1423 343 L 1422 342 L 1417 342 L 1416 343 L 1412 343 L 1410 345 L 1407 346 L 1397 356 L 1397 357 L 1396 358 L 1396 362 L 1395 363 L 1395 364 L 1399 368 L 1400 368 L 1403 371 L 1404 371 L 1405 372 L 1405 373 L 1406 373 L 1408 375 L 1409 375 L 1413 379 L 1414 379 L 1415 380 L 1415 381 L 1422 388 L 1423 388 L 1424 387 L 1424 386 L 1426 384 L 1427 384 L 1428 385 L 1428 386 L 1429 387 L 1430 387 L 1435 392 L 1435 395 L 1436 396 L 1436 397 L 1438 399 L 1441 399 L 1443 401 L 1443 402 L 1440 405 L 1439 408 L 1437 410 L 1435 408 L 1434 408 L 1433 407 L 1432 407 L 1431 406 L 1430 406 L 1427 404 L 1419 404 L 1418 405 L 1416 405 L 1415 406 L 1412 406 L 1411 407 L 1408 407 L 1406 405 L 1403 404 L 1399 400 L 1399 399 L 1400 398 L 1400 396 L 1402 394 L 1402 393 L 1403 392 L 1403 390 L 1405 387 L 1405 382 L 1403 379 L 1403 377 L 1402 376 L 1401 376 L 1397 372 L 1396 372 L 1394 370 L 1393 370 L 1389 366 L 1388 366 L 1378 356 L 1377 356 L 1376 355 L 1376 354 L 1373 353 L 1370 350 L 1369 350 L 1367 348 L 1366 348 L 1359 342 L 1359 341 L 1357 339 L 1357 332 L 1358 331 L 1359 328 L 1358 327 L 1358 325 L 1356 323 L 1355 323 L 1354 324 L 1345 324 L 1344 325 L 1339 325 L 1338 324 L 1333 324 L 1332 323 L 1331 323 L 1330 322 L 1330 318 L 1331 317 L 1331 314 L 1332 313 L 1332 310 L 1331 309 L 1331 308 L 1328 305 L 1327 305 L 1325 303 L 1324 303 L 1323 302 L 1318 302 L 1317 303 L 1314 303 L 1312 305 L 1310 305 L 1309 306 L 1308 306 L 1306 308 L 1305 308 L 1302 310 L 1299 310 L 1298 311 L 1294 311 L 1292 313 L 1291 313 L 1288 316 L 1287 316 L 1287 317 L 1283 321 L 1282 321 L 1281 320 L 1281 318 L 1279 315 L 1279 313 L 1277 311 L 1276 308 Z" data-sezione="18" data-area="7325"></path>
            <path class="sezione" d="M 453 153 L 455 151 L 456 151 L 457 150 L 469 150 L 472 147 L 473 147 L 475 145 L 476 145 L 478 143 L 481 143 L 482 142 L 486 142 L 487 141 L 489 143 L 489 147 L 490 148 L 490 151 L 492 154 L 492 163 L 493 164 L 493 165 L 494 166 L 494 167 L 495 168 L 495 169 L 496 170 L 498 170 L 499 169 L 501 169 L 502 168 L 505 168 L 506 167 L 517 178 L 518 178 L 520 180 L 520 196 L 526 202 L 528 202 L 528 201 L 529 200 L 529 199 L 531 197 L 532 197 L 533 198 L 534 198 L 536 200 L 536 201 L 538 203 L 538 204 L 544 204 L 546 202 L 546 201 L 545 200 L 545 196 L 547 194 L 548 194 L 548 193 L 549 192 L 549 189 L 550 188 L 551 189 L 554 189 L 555 190 L 557 190 L 558 189 L 560 189 L 561 188 L 563 188 L 564 187 L 566 187 L 569 190 L 570 190 L 573 193 L 573 197 L 574 198 L 575 198 L 576 199 L 578 199 L 581 201 L 583 201 L 584 202 L 585 202 L 587 204 L 587 205 L 589 207 L 589 208 L 592 211 L 592 212 L 595 215 L 595 217 L 598 220 L 599 220 L 601 222 L 602 222 L 603 223 L 604 223 L 606 225 L 607 225 L 609 227 L 608 228 L 607 228 L 606 229 L 605 229 L 602 231 L 600 231 L 599 232 L 595 232 L 594 233 L 588 233 L 587 234 L 584 234 L 583 235 L 580 235 L 579 234 L 575 234 L 573 232 L 573 231 L 572 230 L 572 228 L 571 228 L 570 227 L 569 227 L 566 224 L 565 224 L 563 222 L 562 222 L 559 219 L 552 219 L 551 220 L 551 230 L 552 231 L 554 231 L 557 233 L 557 239 L 556 240 L 553 240 L 552 241 L 551 241 L 548 238 L 542 238 L 542 241 L 543 242 L 540 244 L 538 244 L 537 245 L 535 245 L 534 246 L 526 246 L 525 245 L 522 245 L 521 246 L 516 246 L 515 247 L 513 247 L 512 248 L 507 248 L 506 247 L 504 247 L 502 245 L 502 243 L 501 243 L 500 242 L 503 239 L 503 238 L 502 237 L 502 236 L 501 236 L 500 235 L 500 231 L 498 229 L 498 228 L 499 227 L 499 221 L 496 218 L 496 217 L 492 217 L 491 218 L 487 218 L 486 219 L 485 219 L 484 218 L 485 217 L 485 215 L 486 214 L 488 214 L 490 212 L 491 212 L 493 210 L 493 208 L 491 206 L 491 205 L 490 204 L 489 204 L 488 203 L 487 203 L 486 202 L 486 201 L 483 201 L 483 202 L 482 203 L 479 201 L 475 201 L 473 203 L 470 203 L 469 202 L 468 202 L 466 200 L 465 200 L 464 199 L 464 198 L 463 198 L 461 196 L 460 196 L 457 193 L 455 193 L 454 192 L 452 192 L 450 190 L 451 189 L 451 182 L 452 181 L 452 177 L 453 176 L 453 174 L 454 173 L 454 172 L 456 169 L 456 167 L 455 166 L 455 163 L 454 162 L 455 161 L 455 158 L 453 155 Z" data-sezione="50" data-area="6906"></path>
            <path class="sezione" d="M 388 266 L 390 268 L 390 269 L 391 270 L 391 271 L 392 271 L 393 272 L 393 275 L 392 276 L 388 276 L 387 277 L 387 278 L 386 279 L 386 280 L 385 281 L 385 283 L 384 284 L 384 285 L 383 286 L 383 287 L 381 289 L 381 290 L 380 291 L 380 292 L 379 293 L 379 294 L 378 295 L 378 298 L 377 299 L 377 303 L 378 304 L 378 305 L 377 306 L 377 313 L 373 317 L 372 317 L 371 318 L 370 317 L 370 316 L 371 315 L 371 310 L 370 309 L 370 305 L 369 304 L 369 303 L 368 302 L 367 302 L 366 301 L 362 301 L 361 302 L 356 302 L 355 303 L 351 303 L 350 302 L 347 302 L 346 301 L 345 301 L 344 300 L 341 300 L 340 301 L 339 301 L 336 304 L 336 305 L 335 306 L 335 312 L 336 313 L 336 315 L 337 316 L 337 322 L 338 323 L 338 336 L 339 337 L 339 338 L 338 339 L 338 340 L 337 341 L 337 343 L 336 344 L 336 345 L 335 346 L 335 347 L 334 348 L 334 349 L 333 350 L 333 351 L 332 352 L 332 364 L 333 365 L 333 388 L 332 389 L 327 389 L 325 391 L 323 391 L 322 390 L 321 390 L 319 388 L 318 388 L 317 387 L 316 387 L 315 386 L 313 386 L 313 387 L 312 388 L 311 388 L 310 389 L 309 388 L 307 388 L 306 387 L 306 386 L 305 386 L 303 384 L 303 383 L 302 382 L 302 381 L 301 380 L 301 379 L 300 378 L 300 377 L 298 375 L 298 371 L 291 364 L 291 363 L 290 362 L 290 361 L 289 360 L 289 359 L 288 358 L 288 355 L 287 354 L 287 353 L 286 353 L 283 350 L 285 348 L 289 348 L 291 346 L 293 346 L 294 345 L 294 343 L 293 342 L 292 342 L 290 340 L 290 338 L 294 334 L 294 333 L 295 332 L 295 329 L 296 328 L 297 328 L 298 327 L 299 327 L 300 326 L 301 326 L 303 324 L 303 320 L 304 319 L 305 319 L 305 316 L 304 315 L 306 313 L 306 312 L 307 311 L 307 309 L 306 308 L 306 307 L 305 306 L 304 306 L 303 305 L 303 304 L 302 303 L 302 302 L 303 301 L 303 299 L 304 298 L 314 298 L 314 293 L 315 292 L 315 289 L 316 288 L 316 285 L 317 284 L 317 283 L 318 282 L 318 280 L 320 278 L 321 278 L 322 277 L 323 277 L 326 274 L 327 274 L 328 273 L 329 273 L 332 270 L 332 268 L 334 266 L 338 266 L 339 265 L 342 265 L 343 264 L 346 264 L 347 263 L 352 263 L 353 262 L 355 262 L 356 261 L 358 261 L 359 260 L 364 260 L 365 261 L 365 262 L 366 263 L 367 263 L 368 264 L 371 264 L 372 265 L 376 265 L 377 266 Z" data-sezione="46" data-area="5847"></path>
            <path class="sezione" d="M 1494 387 L 1496 385 L 1496 384 L 1502 378 L 1502 377 L 1504 375 L 1504 374 L 1507 371 L 1507 370 L 1509 368 L 1509 367 L 1510 366 L 1510 365 L 1512 363 L 1512 361 L 1514 359 L 1514 358 L 1515 357 L 1515 356 L 1516 355 L 1516 354 L 1517 353 L 1517 352 L 1518 351 L 1518 349 L 1520 347 L 1520 345 L 1521 344 L 1521 342 L 1522 341 L 1522 340 L 1523 339 L 1523 338 L 1524 337 L 1524 336 L 1525 335 L 1525 333 L 1526 332 L 1526 331 L 1527 330 L 1527 329 L 1528 328 L 1528 326 L 1532 322 L 1533 322 L 1535 320 L 1536 320 L 1537 319 L 1540 322 L 1541 322 L 1542 323 L 1543 323 L 1544 324 L 1548 324 L 1549 325 L 1553 325 L 1554 326 L 1555 326 L 1557 328 L 1555 330 L 1555 333 L 1556 333 L 1558 335 L 1561 335 L 1562 336 L 1566 336 L 1567 335 L 1575 335 L 1576 336 L 1576 337 L 1578 339 L 1578 340 L 1580 342 L 1581 342 L 1582 343 L 1584 343 L 1585 344 L 1585 345 L 1586 346 L 1588 346 L 1589 347 L 1591 347 L 1592 348 L 1592 350 L 1588 354 L 1588 355 L 1587 356 L 1587 357 L 1586 358 L 1586 359 L 1585 360 L 1585 361 L 1584 362 L 1584 363 L 1582 365 L 1582 366 L 1581 367 L 1581 369 L 1579 371 L 1579 372 L 1580 373 L 1583 373 L 1587 377 L 1587 378 L 1590 381 L 1590 382 L 1592 384 L 1590 386 L 1590 387 L 1589 388 L 1589 389 L 1588 390 L 1587 390 L 1587 396 L 1586 397 L 1585 396 L 1567 396 L 1566 395 L 1561 395 L 1560 394 L 1559 394 L 1558 393 L 1557 393 L 1555 391 L 1551 391 L 1549 393 L 1549 396 L 1548 397 L 1548 398 L 1547 399 L 1547 400 L 1545 402 L 1545 407 L 1544 408 L 1544 409 L 1543 410 L 1540 410 L 1539 409 L 1530 409 L 1529 408 L 1529 403 L 1531 401 L 1537 401 L 1538 400 L 1539 400 L 1539 396 L 1538 396 L 1537 395 L 1537 394 L 1534 391 L 1520 391 L 1518 389 L 1518 388 L 1517 387 L 1517 386 L 1508 386 L 1507 387 L 1507 398 L 1505 400 L 1504 400 L 1503 399 L 1500 399 L 1499 398 L 1499 393 L 1495 393 L 1494 392 Z" data-sezione="39" data-area="4939"></path>
            <path class="sezione" d="M 713 241 L 712 242 L 710 242 L 709 243 L 704 243 L 703 244 L 701 244 L 700 243 L 697 243 L 696 242 L 690 242 L 689 243 L 688 243 L 687 244 L 686 243 L 683 243 L 682 242 L 678 242 L 677 243 L 672 243 L 672 245 L 671 246 L 670 246 L 666 250 L 665 250 L 663 252 L 662 252 L 661 253 L 660 253 L 658 255 L 653 255 L 652 256 L 649 256 L 648 257 L 645 257 L 644 258 L 642 258 L 641 259 L 639 259 L 638 260 L 637 260 L 636 261 L 635 260 L 634 260 L 633 259 L 631 259 L 630 260 L 629 260 L 628 261 L 618 261 L 617 262 L 613 262 L 612 261 L 608 261 L 606 263 L 605 263 L 604 264 L 603 263 L 599 263 L 598 262 L 594 262 L 593 261 L 589 261 L 588 262 L 582 262 L 581 263 L 573 263 L 571 265 L 570 265 L 569 266 L 568 266 L 567 267 L 565 267 L 561 263 L 560 263 L 559 262 L 559 261 L 558 260 L 558 259 L 556 259 L 555 258 L 555 257 L 554 257 L 553 256 L 553 249 L 552 248 L 552 244 L 551 243 L 552 242 L 555 242 L 556 241 L 557 242 L 558 242 L 558 240 L 559 239 L 559 232 L 557 230 L 554 230 L 553 229 L 553 222 L 555 220 L 556 221 L 558 221 L 560 223 L 561 223 L 562 224 L 562 225 L 563 225 L 564 226 L 565 226 L 568 229 L 569 229 L 571 231 L 571 234 L 572 235 L 573 235 L 574 236 L 588 236 L 589 235 L 592 235 L 593 234 L 599 234 L 600 233 L 603 233 L 605 231 L 607 231 L 610 228 L 612 228 L 614 230 L 613 231 L 613 234 L 614 235 L 618 235 L 620 233 L 621 233 L 622 234 L 622 236 L 624 236 L 626 234 L 627 235 L 628 235 L 629 234 L 637 234 L 638 233 L 644 233 L 645 232 L 646 232 L 647 231 L 648 231 L 649 230 L 652 230 L 653 229 L 654 229 L 656 227 L 660 227 L 661 226 L 662 226 L 665 223 L 666 223 L 668 221 L 671 221 L 672 220 L 673 220 L 675 218 L 678 218 L 681 215 L 687 215 L 688 214 L 689 214 L 690 213 L 692 213 L 693 212 L 696 212 L 697 211 L 698 212 L 698 214 L 699 215 L 699 224 L 698 225 L 698 226 L 699 227 L 699 233 L 701 233 L 702 232 L 703 232 L 704 233 L 705 233 L 710 238 L 711 238 L 712 239 L 712 240 Z" data-sezione="52" data-area="4230"></path>
            <path class="sezione" d="M 560 289 L 560 291 L 559 292 L 558 292 L 558 293 L 557 294 L 557 295 L 556 296 L 556 297 L 555 298 L 552 298 L 551 299 L 548 299 L 547 298 L 540 298 L 539 299 L 538 298 L 534 298 L 534 301 L 533 302 L 532 302 L 531 301 L 529 301 L 528 300 L 525 300 L 523 298 L 522 298 L 521 297 L 517 297 L 513 293 L 512 293 L 511 292 L 508 292 L 507 291 L 506 291 L 505 290 L 505 289 L 504 289 L 502 287 L 497 287 L 496 286 L 495 286 L 494 287 L 493 287 L 492 288 L 491 288 L 489 290 L 488 290 L 486 292 L 485 292 L 482 295 L 482 296 L 481 297 L 476 297 L 475 298 L 470 298 L 469 299 L 468 299 L 466 301 L 466 302 L 463 305 L 462 305 L 461 304 L 461 302 L 460 301 L 460 300 L 459 299 L 459 297 L 458 296 L 458 295 L 452 295 L 451 294 L 451 284 L 452 283 L 452 282 L 451 281 L 451 273 L 449 273 L 448 272 L 448 271 L 447 270 L 447 269 L 448 268 L 448 267 L 450 265 L 458 265 L 459 264 L 460 265 L 472 265 L 473 264 L 474 264 L 475 263 L 476 263 L 477 264 L 478 264 L 480 266 L 484 266 L 485 265 L 489 265 L 491 263 L 492 263 L 493 262 L 494 262 L 495 261 L 497 261 L 498 260 L 500 260 L 502 258 L 503 258 L 504 257 L 505 257 L 507 255 L 508 255 L 510 253 L 516 253 L 517 252 L 522 252 L 525 249 L 529 249 L 530 250 L 531 250 L 533 252 L 534 252 L 535 253 L 536 253 L 539 256 L 540 256 L 544 260 L 546 260 L 547 261 L 549 261 L 550 260 L 551 261 L 551 262 L 549 264 L 549 265 L 548 266 L 548 272 L 549 273 L 549 274 L 551 276 L 551 279 L 554 282 L 554 283 L 557 286 L 557 287 L 558 288 L 559 288 Z" data-sezione="48" data-area="3737"></path>
            
            <path class="sezione" d="M 1336 326 L 1338 326 L 1339 327 L 1345 327 L 1346 326 L 1350 326 L 1351 325 L 1355 325 L 1356 326 L 1356 327 L 1357 328 L 1356 329 L 1356 341 L 1357 342 L 1357 343 L 1360 346 L 1361 346 L 1364 349 L 1365 349 L 1367 351 L 1368 351 L 1371 354 L 1372 354 L 1374 356 L 1375 356 L 1387 368 L 1388 368 L 1391 371 L 1392 371 L 1394 373 L 1395 373 L 1398 376 L 1399 376 L 1400 377 L 1400 378 L 1401 378 L 1402 379 L 1402 381 L 1403 382 L 1403 387 L 1402 388 L 1402 389 L 1401 390 L 1401 391 L 1400 392 L 1400 393 L 1399 394 L 1399 395 L 1398 396 L 1398 403 L 1399 404 L 1399 406 L 1398 407 L 1398 408 L 1396 410 L 1396 412 L 1395 413 L 1395 414 L 1394 415 L 1394 417 L 1393 418 L 1392 417 L 1390 417 L 1389 416 L 1388 416 L 1387 415 L 1384 415 L 1383 414 L 1382 414 L 1381 413 L 1380 413 L 1379 412 L 1377 412 L 1375 410 L 1375 406 L 1374 405 L 1374 404 L 1368 398 L 1368 397 L 1366 395 L 1366 394 L 1365 393 L 1365 392 L 1364 391 L 1364 390 L 1363 389 L 1363 388 L 1362 387 L 1362 385 L 1360 383 L 1360 381 L 1359 380 L 1359 379 L 1358 378 L 1358 377 L 1357 376 L 1353 376 L 1352 375 L 1349 375 L 1348 374 L 1347 374 L 1345 376 L 1344 375 L 1341 375 L 1339 377 L 1333 377 L 1332 376 L 1330 376 L 1329 375 L 1328 375 L 1327 374 L 1327 369 L 1326 368 L 1326 362 L 1327 361 L 1327 357 L 1328 356 L 1328 351 L 1329 350 L 1329 348 L 1330 347 L 1330 344 L 1331 343 L 1331 341 L 1332 340 L 1332 338 L 1333 337 L 1333 334 L 1334 333 L 1334 331 L 1335 330 L 1335 327 Z" data-sezione="27" data-area="3277"></path>
            <path class="sezione" d="M 1320 303 L 1321 304 L 1323 304 L 1326 307 L 1327 307 L 1330 310 L 1330 313 L 1329 314 L 1329 318 L 1328 319 L 1328 323 L 1330 325 L 1332 325 L 1333 326 L 1333 330 L 1332 331 L 1332 334 L 1331 335 L 1331 336 L 1330 337 L 1330 340 L 1329 341 L 1329 344 L 1328 345 L 1328 347 L 1327 348 L 1327 352 L 1326 353 L 1326 356 L 1325 357 L 1325 360 L 1324 361 L 1324 367 L 1325 368 L 1325 380 L 1324 381 L 1323 381 L 1322 382 L 1321 382 L 1320 383 L 1316 383 L 1315 382 L 1315 381 L 1312 378 L 1311 378 L 1310 379 L 1307 379 L 1306 378 L 1306 377 L 1301 377 L 1300 376 L 1300 372 L 1299 371 L 1292 371 L 1291 370 L 1285 370 L 1284 369 L 1284 368 L 1282 366 L 1282 364 L 1281 363 L 1281 362 L 1279 360 L 1279 359 L 1277 357 L 1277 356 L 1274 353 L 1274 352 L 1273 351 L 1273 350 L 1271 348 L 1270 348 L 1269 347 L 1269 346 L 1268 345 L 1268 344 L 1269 343 L 1270 343 L 1274 339 L 1274 338 L 1275 337 L 1275 336 L 1276 335 L 1276 334 L 1277 333 L 1277 332 L 1279 330 L 1279 329 L 1284 324 L 1284 323 L 1292 315 L 1293 315 L 1295 313 L 1297 313 L 1298 312 L 1301 312 L 1302 311 L 1305 311 L 1307 309 L 1308 309 L 1309 308 L 1310 308 L 1311 307 L 1312 307 L 1313 306 L 1314 306 L 1315 305 L 1316 305 L 1317 304 L 1319 304 Z" data-sezione="25" data-area="3231"></path>
            <path class="sezione" d="M 1301 406 L 1302 405 L 1316 405 L 1317 404 L 1328 404 L 1330 406 L 1330 408 L 1333 411 L 1334 411 L 1337 414 L 1337 416 L 1335 418 L 1335 421 L 1337 423 L 1337 424 L 1343 430 L 1344 430 L 1350 436 L 1350 437 L 1357 444 L 1358 444 L 1359 445 L 1362 445 L 1363 446 L 1363 447 L 1364 448 L 1364 451 L 1365 452 L 1365 454 L 1366 455 L 1366 457 L 1367 458 L 1367 462 L 1368 463 L 1371 463 L 1372 462 L 1374 462 L 1375 463 L 1376 463 L 1377 464 L 1378 464 L 1379 465 L 1380 465 L 1381 466 L 1382 466 L 1383 467 L 1384 467 L 1387 470 L 1387 471 L 1388 472 L 1388 476 L 1389 477 L 1389 482 L 1390 483 L 1390 486 L 1391 487 L 1391 490 L 1390 491 L 1389 491 L 1388 490 L 1387 490 L 1384 487 L 1383 487 L 1370 474 L 1369 474 L 1368 473 L 1368 472 L 1364 472 L 1363 473 L 1360 473 L 1359 474 L 1356 474 L 1355 475 L 1353 475 L 1352 476 L 1351 476 L 1350 477 L 1347 477 L 1346 476 L 1344 476 L 1343 475 L 1343 473 L 1342 472 L 1342 471 L 1341 470 L 1341 465 L 1342 464 L 1342 463 L 1344 461 L 1344 458 L 1341 458 L 1340 457 L 1338 457 L 1337 456 L 1334 456 L 1333 455 L 1333 452 L 1332 451 L 1332 450 L 1330 448 L 1330 447 L 1329 446 L 1329 445 L 1327 443 L 1326 443 L 1325 442 L 1317 442 L 1316 441 L 1304 441 L 1303 440 L 1294 440 L 1292 438 L 1292 436 L 1290 434 L 1290 433 L 1289 432 L 1289 431 L 1288 430 L 1288 428 L 1289 427 L 1290 427 L 1291 426 L 1292 426 L 1294 424 L 1296 424 L 1301 419 Z" data-sezione="21" data-area="2906"></path>
            <path class="sezione" d="M 1631 371 L 1632 372 L 1633 372 L 1634 373 L 1635 373 L 1637 375 L 1638 375 L 1640 377 L 1640 379 L 1641 380 L 1641 383 L 1642 384 L 1642 385 L 1643 386 L 1643 389 L 1646 392 L 1647 392 L 1649 394 L 1650 394 L 1651 395 L 1647 399 L 1647 400 L 1643 404 L 1643 406 L 1642 407 L 1642 408 L 1641 409 L 1641 412 L 1640 413 L 1640 415 L 1639 416 L 1639 417 L 1638 418 L 1638 419 L 1637 420 L 1637 423 L 1638 424 L 1647 424 L 1649 426 L 1649 427 L 1650 428 L 1650 429 L 1651 430 L 1651 432 L 1650 433 L 1649 433 L 1647 435 L 1646 435 L 1644 437 L 1642 437 L 1641 438 L 1636 438 L 1635 439 L 1619 439 L 1617 437 L 1616 437 L 1611 432 L 1600 432 L 1599 433 L 1598 432 L 1598 413 L 1595 413 L 1594 412 L 1594 405 L 1593 405 L 1592 404 L 1586 404 L 1585 403 L 1585 399 L 1586 398 L 1588 398 L 1588 392 L 1589 391 L 1590 391 L 1590 390 L 1592 388 L 1592 387 L 1593 386 L 1593 385 L 1594 384 L 1610 384 L 1611 383 L 1613 383 L 1615 381 L 1615 380 L 1619 376 L 1620 376 L 1621 375 L 1623 375 L 1625 373 L 1626 373 L 1627 372 L 1628 372 L 1629 371 Z" data-sezione="14" data-area="2898"></path>
            <path class="sezione" d="M 1639 422 L 1639 420 L 1641 418 L 1641 416 L 1642 415 L 1642 414 L 1643 413 L 1643 410 L 1644 409 L 1644 407 L 1645 406 L 1645 405 L 1648 402 L 1648 401 L 1652 397 L 1652 396 L 1653 395 L 1653 394 L 1652 393 L 1651 393 L 1649 391 L 1648 391 L 1645 388 L 1645 387 L 1644 386 L 1644 383 L 1643 382 L 1643 379 L 1642 378 L 1642 377 L 1644 375 L 1645 375 L 1646 374 L 1647 374 L 1648 373 L 1649 373 L 1649 368 L 1650 367 L 1650 362 L 1651 361 L 1652 362 L 1652 363 L 1653 364 L 1653 365 L 1654 366 L 1654 367 L 1658 371 L 1659 371 L 1662 374 L 1670 374 L 1671 373 L 1684 373 L 1685 374 L 1685 375 L 1686 376 L 1686 377 L 1687 378 L 1687 380 L 1688 381 L 1688 382 L 1689 383 L 1689 385 L 1690 386 L 1692 386 L 1693 387 L 1698 387 L 1699 388 L 1702 388 L 1703 389 L 1708 389 L 1709 390 L 1712 390 L 1713 391 L 1717 391 L 1718 390 L 1720 390 L 1721 389 L 1724 389 L 1725 388 L 1726 388 L 1727 387 L 1728 387 L 1729 388 L 1729 396 L 1728 397 L 1718 397 L 1716 399 L 1715 399 L 1714 400 L 1713 400 L 1712 401 L 1711 401 L 1709 403 L 1708 403 L 1707 404 L 1706 404 L 1705 405 L 1704 405 L 1702 407 L 1701 407 L 1700 408 L 1699 408 L 1698 409 L 1697 409 L 1695 411 L 1694 411 L 1693 412 L 1692 412 L 1690 414 L 1689 414 L 1687 416 L 1686 416 L 1685 417 L 1684 417 L 1682 419 L 1681 419 L 1679 421 L 1677 421 L 1676 422 L 1674 422 L 1673 423 L 1670 423 L 1669 424 L 1667 424 L 1666 425 L 1664 425 L 1663 426 L 1662 426 L 1661 427 L 1660 427 L 1659 428 L 1658 428 L 1657 429 L 1656 429 L 1655 430 L 1653 430 L 1652 429 L 1652 427 L 1651 426 L 1651 425 L 1649 423 L 1640 423 Z" data-sezione="49" data-area="2832"></path>
            
            <path class="sezione" d="M 276 189 L 283 189 L 284 190 L 285 190 L 287 188 L 292 188 L 293 187 L 294 187 L 295 186 L 296 187 L 298 187 L 299 186 L 300 187 L 301 187 L 303 189 L 304 189 L 305 188 L 306 189 L 306 190 L 307 191 L 307 195 L 308 196 L 308 197 L 314 197 L 315 196 L 317 198 L 319 198 L 323 202 L 328 202 L 329 201 L 330 202 L 330 208 L 331 209 L 332 209 L 333 210 L 333 212 L 330 215 L 330 220 L 331 221 L 331 222 L 332 223 L 332 224 L 331 225 L 330 225 L 329 226 L 327 226 L 325 228 L 324 228 L 324 229 L 323 230 L 323 231 L 322 232 L 322 234 L 320 236 L 317 236 L 316 237 L 316 238 L 313 241 L 309 241 L 306 244 L 296 244 L 295 245 L 293 243 L 293 241 L 292 240 L 292 238 L 291 238 L 290 237 L 289 237 L 288 236 L 286 236 L 285 235 L 285 234 L 284 233 L 284 232 L 281 229 L 281 228 L 279 226 L 279 224 L 276 221 L 276 220 L 277 219 L 277 214 L 276 213 L 277 212 L 277 209 L 278 208 L 279 208 L 280 207 L 280 205 L 279 204 L 278 204 L 277 203 L 277 196 L 274 193 L 274 192 L 275 191 L 275 190 Z" data-sezione="14" data-area="2341"></path>
            <path class="sezione" d="M 1222 267 L 1224 267 L 1225 268 L 1226 268 L 1228 270 L 1228 273 L 1229 274 L 1229 275 L 1230 275 L 1231 276 L 1232 276 L 1233 277 L 1235 277 L 1236 278 L 1237 278 L 1238 279 L 1239 279 L 1241 281 L 1241 282 L 1242 282 L 1244 284 L 1244 290 L 1246 292 L 1246 293 L 1247 294 L 1247 296 L 1249 298 L 1249 300 L 1251 302 L 1251 303 L 1252 303 L 1253 304 L 1253 308 L 1252 309 L 1252 313 L 1251 314 L 1246 314 L 1245 313 L 1238 313 L 1238 315 L 1237 316 L 1237 326 L 1236 327 L 1236 336 L 1235 337 L 1231 337 L 1230 338 L 1225 338 L 1224 337 L 1213 337 L 1210 334 L 1210 332 L 1209 331 L 1210 330 L 1210 329 L 1213 326 L 1214 326 L 1215 327 L 1224 327 L 1225 326 L 1225 322 L 1224 321 L 1224 320 L 1219 315 L 1218 315 L 1217 314 L 1212 314 L 1211 315 L 1209 315 L 1208 316 L 1206 316 L 1205 317 L 1204 316 L 1203 316 L 1202 315 L 1202 314 L 1201 313 L 1201 305 L 1200 304 L 1198 304 L 1196 302 L 1197 301 L 1198 301 L 1201 298 L 1202 298 L 1202 297 L 1203 296 L 1203 295 L 1204 294 L 1204 285 L 1203 285 L 1202 284 L 1202 282 L 1203 281 L 1204 281 L 1206 279 L 1206 278 L 1207 277 L 1208 277 L 1209 276 L 1216 276 L 1217 275 L 1217 274 L 1218 273 L 1218 272 L 1220 270 L 1220 269 Z" data-sezione="16" data-area="2225"></path>
            <path class="sezione" d="M 430 207 L 431 206 L 432 206 L 434 204 L 439 204 L 440 203 L 441 203 L 442 202 L 444 202 L 445 201 L 448 201 L 450 199 L 453 199 L 456 202 L 456 203 L 457 204 L 457 205 L 459 207 L 462 207 L 464 209 L 464 211 L 466 213 L 466 214 L 467 214 L 471 218 L 471 220 L 474 223 L 474 225 L 475 226 L 476 226 L 478 228 L 478 230 L 482 234 L 481 235 L 481 237 L 483 239 L 485 239 L 486 240 L 487 240 L 488 241 L 488 243 L 487 244 L 485 242 L 483 242 L 482 243 L 481 243 L 480 244 L 479 244 L 477 246 L 473 246 L 470 243 L 470 242 L 471 241 L 471 240 L 472 239 L 472 238 L 473 237 L 473 235 L 472 235 L 470 233 L 469 233 L 467 231 L 463 231 L 462 230 L 462 228 L 458 228 L 456 226 L 454 226 L 453 227 L 452 227 L 451 228 L 451 229 L 450 230 L 450 232 L 449 233 L 449 234 L 448 235 L 448 236 L 447 237 L 447 239 L 445 241 L 445 242 L 442 245 L 442 246 L 440 248 L 440 249 L 439 250 L 438 249 L 434 249 L 433 250 L 432 250 L 431 249 L 430 249 L 428 251 L 424 252 L 423 247 L 420 248 L 412 240 L 416 235 L 421 234 L 426 223 L 427 223 L 430 220 L 431 220 L 434 217 L 434 213 L 433 212 L 432 212 L 431 211 L 432 210 L 432 209 Z" data-sezione="31" data-area="1647"></path>
            <path class="sezione" d="M 1223 422 L 1223 420 L 1225 418 L 1226 418 L 1227 417 L 1228 417 L 1229 416 L 1229 415 L 1230 414 L 1230 413 L 1228 411 L 1228 409 L 1230 407 L 1231 407 L 1232 406 L 1234 406 L 1235 405 L 1237 405 L 1238 406 L 1239 406 L 1240 407 L 1242 407 L 1243 408 L 1245 408 L 1246 409 L 1248 409 L 1248 406 L 1249 405 L 1250 406 L 1252 406 L 1253 407 L 1256 407 L 1257 406 L 1270 406 L 1271 405 L 1299 405 L 1300 406 L 1300 417 L 1295 422 L 1294 422 L 1293 423 L 1292 423 L 1291 424 L 1290 424 L 1289 425 L 1288 425 L 1287 426 L 1286 426 L 1286 431 L 1287 432 L 1287 433 L 1289 435 L 1289 436 L 1290 437 L 1290 438 L 1291 439 L 1290 440 L 1289 440 L 1288 439 L 1283 439 L 1282 438 L 1280 438 L 1279 437 L 1275 437 L 1274 436 L 1270 436 L 1269 435 L 1267 435 L 1266 434 L 1262 434 L 1261 433 L 1258 433 L 1257 432 L 1255 432 L 1252 429 L 1253 428 L 1253 427 L 1254 426 L 1254 425 L 1253 424 L 1251 424 L 1250 423 L 1248 423 L 1247 422 L 1246 422 L 1245 421 L 1237 421 L 1236 422 L 1229 422 L 1228 423 L 1224 423 Z" data-sezione="47" data-area="1641"></path>
            <path class="sezione" d="M 1488 402 L 1489 401 L 1506 401 L 1507 402 L 1507 409 L 1509 409 L 1510 410 L 1528 410 L 1529 411 L 1543 411 L 1544 412 L 1544 417 L 1543 418 L 1539 418 L 1539 435 L 1538 436 L 1527 436 L 1526 437 L 1525 437 L 1524 438 L 1522 438 L 1521 439 L 1516 439 L 1515 440 L 1514 439 L 1513 439 L 1510 436 L 1509 436 L 1507 434 L 1506 434 L 1504 432 L 1503 432 L 1502 431 L 1498 431 L 1497 430 L 1494 430 L 1493 429 L 1488 429 L 1487 428 L 1484 428 L 1483 427 L 1483 420 L 1484 419 L 1484 417 L 1485 416 L 1486 416 L 1486 409 L 1487 408 L 1488 408 Z" data-sezione="34" data-area="1528"></path>
            <path class="sezione" d="M 1284 375 L 1284 379 L 1283 380 L 1283 382 L 1279 386 L 1278 386 L 1276 388 L 1274 388 L 1273 389 L 1272 389 L 1271 390 L 1270 390 L 1269 391 L 1268 391 L 1268 392 L 1263 397 L 1262 397 L 1261 396 L 1258 396 L 1254 392 L 1253 392 L 1249 388 L 1248 388 L 1245 385 L 1243 385 L 1242 384 L 1239 384 L 1238 385 L 1234 385 L 1233 386 L 1231 386 L 1228 389 L 1227 389 L 1227 390 L 1226 391 L 1225 391 L 1225 392 L 1224 393 L 1224 395 L 1223 396 L 1223 397 L 1222 398 L 1222 399 L 1221 400 L 1220 400 L 1219 399 L 1219 397 L 1220 396 L 1220 391 L 1219 390 L 1219 389 L 1218 388 L 1218 386 L 1216 386 L 1215 387 L 1213 387 L 1212 388 L 1210 388 L 1209 387 L 1209 374 L 1210 373 L 1211 374 L 1229 374 L 1230 373 L 1236 373 L 1237 372 L 1257 372 L 1258 371 L 1273 371 L 1274 370 L 1281 370 L 1283 372 L 1283 374 Z" data-sezione="7" data-area="1275"></path>
            <path class="sezione" d="M 1149 353 L 1149 366 L 1148 367 L 1148 370 L 1150 372 L 1150 373 L 1151 374 L 1151 377 L 1152 378 L 1152 383 L 1151 384 L 1149 384 L 1148 385 L 1144 385 L 1143 384 L 1143 382 L 1142 381 L 1142 376 L 1141 375 L 1141 372 L 1136 372 L 1135 373 L 1130 373 L 1129 374 L 1126 374 L 1125 375 L 1119 375 L 1118 376 L 1114 376 L 1113 377 L 1108 377 L 1107 378 L 1101 378 L 1100 377 L 1101 376 L 1104 376 L 1105 375 L 1105 374 L 1104 373 L 1104 368 L 1103 367 L 1103 366 L 1102 365 L 1102 364 L 1099 361 L 1098 361 L 1097 360 L 1096 360 L 1095 359 L 1094 359 L 1092 357 L 1092 356 L 1095 353 L 1096 353 L 1097 352 L 1105 352 L 1106 351 L 1111 351 L 1112 352 L 1120 352 L 1121 353 L 1122 353 L 1123 354 L 1127 354 L 1128 355 L 1133 355 L 1135 353 L 1135 352 L 1136 351 L 1137 351 L 1137 350 L 1139 348 L 1140 348 L 1141 349 L 1143 349 L 1145 351 L 1147 351 Z" data-sezione="42" data-area="1230"></path>
            <path class="sezione" d="M 403 258 L 404 257 L 405 257 L 406 258 L 408 258 L 409 259 L 411 259 L 411 258 L 414 255 L 421 255 L 425 259 L 425 261 L 426 262 L 426 263 L 433 263 L 434 262 L 435 262 L 436 261 L 437 262 L 439 262 L 440 263 L 443 263 L 444 264 L 445 264 L 447 266 L 445 268 L 445 269 L 444 270 L 444 271 L 445 272 L 446 272 L 447 273 L 447 274 L 448 274 L 450 276 L 450 277 L 449 278 L 448 278 L 448 280 L 450 282 L 450 283 L 449 284 L 449 285 L 448 286 L 448 287 L 449 288 L 449 293 L 448 294 L 445 294 L 444 293 L 442 293 L 441 292 L 437 292 L 436 291 L 435 291 L 434 290 L 431 290 L 430 289 L 427 289 L 426 288 L 425 288 L 424 287 L 423 287 L 422 286 L 420 286 L 419 285 L 418 285 L 417 284 L 416 284 L 415 283 L 414 283 L 413 282 L 412 282 L 411 281 L 411 279 L 410 278 L 410 274 L 407 271 L 404 271 L 403 270 L 403 268 L 402 267 L 402 266 L 400 264 L 402 262 L 402 260 L 403 259 Z" data-sezione="30" data-area="1176"></path>
            <path class="sezione" d="M 1596 415 L 1596 426 L 1597 427 L 1597 433 L 1596 434 L 1595 434 L 1594 435 L 1593 435 L 1592 436 L 1557 436 L 1556 435 L 1542 435 L 1541 434 L 1541 420 L 1542 419 L 1543 419 L 1544 420 L 1544 422 L 1554 422 L 1555 423 L 1557 423 L 1558 422 L 1559 422 L 1560 421 L 1563 421 L 1564 422 L 1566 422 L 1567 423 L 1569 423 L 1570 422 L 1570 414 L 1571 413 L 1584 413 L 1585 414 L 1595 414 Z" data-sezione="35" data-area="983"></path>
            <path class="sezione" d="M 1444 399 L 1445 398 L 1446 398 L 1447 399 L 1449 399 L 1450 400 L 1451 400 L 1452 401 L 1453 401 L 1454 402 L 1456 402 L 1457 403 L 1458 403 L 1459 404 L 1460 404 L 1461 405 L 1462 405 L 1463 406 L 1464 406 L 1465 407 L 1475 407 L 1476 408 L 1484 408 L 1485 409 L 1485 411 L 1484 412 L 1484 413 L 1483 414 L 1482 414 L 1482 426 L 1481 427 L 1478 427 L 1477 426 L 1474 426 L 1473 427 L 1472 427 L 1471 428 L 1467 428 L 1466 429 L 1463 429 L 1462 430 L 1448 430 L 1447 429 L 1446 429 L 1445 428 L 1445 427 L 1443 425 L 1443 416 L 1440 413 L 1440 409 L 1442 407 L 1442 406 L 1445 403 L 1445 400 Z" data-sezione="33" data-area="971"></path>
            <path class="sezione" d="M 12 365 L 12 367 L 11 368 L 11 370 L 12 371 L 11 372 L 11 376 L 15 376 L 16 377 L 17 377 L 21 381 L 22 381 L 23 380 L 28 385 L 31 385 L 32 386 L 33 386 L 34 387 L 38 387 L 39 388 L 40 388 L 41 389 L 43 389 L 44 388 L 44 384 L 46 382 L 46 378 L 47 377 L 47 375 L 48 374 L 53 374 L 55 372 L 55 370 L 54 369 L 52 369 L 50 367 L 48 367 L 47 366 L 48 365 L 48 361 L 49 360 L 49 357 L 48 356 L 44 356 L 43 357 L 42 356 L 31 356 L 30 357 L 29 357 L 28 358 L 25 358 L 24 359 L 24 360 L 23 361 L 22 361 L 21 362 L 17 362 L 15 364 L 14 364 L 13 365 Z" data-sezione="-1" data-area="923"></path>
            <path class="sezione" d="M 1207 361 L 1207 382 L 1206 383 L 1205 382 L 1195 382 L 1194 381 L 1192 381 L 1191 382 L 1190 382 L 1189 383 L 1170 383 L 1169 382 L 1168 382 L 1167 381 L 1167 380 L 1166 379 L 1166 376 L 1165 375 L 1166 374 L 1167 374 L 1167 373 L 1168 372 L 1168 369 L 1169 368 L 1170 369 L 1173 369 L 1173 362 L 1174 361 L 1180 361 L 1181 360 L 1197 360 L 1198 359 L 1205 359 Z" data-sezione="3" data-area="847"></path>
            <path class="sezione" d="M 358 254 L 358 256 L 356 258 L 356 259 L 355 260 L 353 260 L 352 261 L 350 261 L 349 262 L 343 262 L 342 263 L 338 263 L 337 264 L 335 264 L 334 265 L 331 265 L 330 266 L 330 269 L 328 271 L 327 271 L 325 273 L 323 273 L 323 274 L 321 276 L 319 276 L 317 278 L 316 278 L 316 282 L 314 284 L 314 288 L 313 289 L 313 294 L 312 295 L 312 296 L 311 297 L 302 297 L 301 296 L 302 295 L 303 295 L 303 294 L 306 291 L 306 287 L 305 286 L 305 282 L 304 281 L 304 279 L 305 278 L 306 278 L 310 274 L 311 274 L 312 273 L 312 272 L 313 271 L 314 271 L 314 270 L 315 269 L 316 269 L 317 268 L 318 268 L 319 267 L 320 267 L 321 266 L 322 266 L 323 265 L 324 265 L 324 259 L 323 258 L 323 256 L 322 255 L 322 252 L 323 251 L 324 251 L 325 250 L 330 250 L 331 249 L 335 249 L 336 248 L 336 246 L 337 245 L 340 248 L 351 248 L 353 250 L 354 250 L 355 251 L 355 253 L 357 253 Z" data-sezione="8" data-area="813"></path>
            <path class="sezione" d="M 1245 338 L 1247 340 L 1247 343 L 1246 344 L 1246 355 L 1247 356 L 1247 369 L 1246 370 L 1239 370 L 1238 371 L 1231 371 L 1230 372 L 1229 371 L 1229 364 L 1228 363 L 1222 363 L 1221 362 L 1221 360 L 1222 359 L 1223 359 L 1223 351 L 1222 350 L 1222 348 L 1220 346 L 1220 345 L 1218 345 L 1216 343 L 1216 342 L 1215 341 L 1215 340 L 1216 339 L 1236 339 L 1237 338 Z" data-sezione="5" data-area="767"></path>
            <path class="sezione" d="M 1169 334 L 1166 337 L 1164 337 L 1163 338 L 1162 338 L 1161 339 L 1160 339 L 1159 340 L 1158 340 L 1155 343 L 1155 344 L 1153 346 L 1153 347 L 1152 348 L 1152 349 L 1151 350 L 1149 350 L 1148 349 L 1146 349 L 1145 348 L 1143 348 L 1142 347 L 1141 347 L 1140 346 L 1138 346 L 1134 350 L 1134 351 L 1132 353 L 1127 353 L 1126 352 L 1124 352 L 1123 351 L 1118 351 L 1117 350 L 1111 350 L 1110 349 L 1110 345 L 1112 343 L 1116 343 L 1116 341 L 1117 340 L 1118 340 L 1120 338 L 1121 338 L 1122 337 L 1123 337 L 1124 336 L 1125 336 L 1126 335 L 1127 335 L 1128 334 L 1129 334 L 1130 333 L 1131 333 L 1132 332 L 1133 332 L 1135 330 L 1136 330 L 1138 328 L 1140 328 L 1141 327 L 1142 327 L 1144 329 L 1144 330 L 1145 331 L 1145 333 L 1147 335 L 1147 336 L 1152 336 L 1153 335 L 1156 335 L 1157 334 L 1162 334 L 1163 333 L 1164 333 L 1165 332 L 1166 332 L 1167 331 L 1168 332 L 1168 333 Z" data-sezione="9" data-area="732"></path>
            <path class="sezione" d="M 1248 281 L 1249 281 L 1250 280 L 1251 280 L 1252 281 L 1253 281 L 1258 286 L 1257 287 L 1257 291 L 1258 292 L 1259 292 L 1260 293 L 1261 293 L 1262 294 L 1263 294 L 1265 296 L 1265 297 L 1267 299 L 1267 300 L 1268 301 L 1268 302 L 1267 303 L 1264 303 L 1264 306 L 1266 306 L 1267 307 L 1267 308 L 1266 309 L 1266 311 L 1268 311 L 1268 310 L 1269 309 L 1269 307 L 1270 306 L 1271 306 L 1274 309 L 1274 310 L 1276 312 L 1276 313 L 1277 314 L 1277 315 L 1278 316 L 1278 318 L 1279 319 L 1279 321 L 1281 323 L 1281 324 L 1279 326 L 1276 323 L 1267 323 L 1265 325 L 1258 325 L 1257 324 L 1254 324 L 1253 323 L 1253 319 L 1254 318 L 1254 308 L 1255 307 L 1255 304 L 1254 303 L 1254 301 L 1253 301 L 1251 299 L 1251 298 L 1250 297 L 1250 296 L 1249 295 L 1249 293 L 1247 291 L 1247 290 L 1246 289 L 1246 283 Z" data-sezione="17" data-area="699"></path>
            <path class="sezione" d="M 1249 341 L 1250 340 L 1251 340 L 1252 341 L 1255 341 L 1256 342 L 1258 342 L 1259 343 L 1262 343 L 1263 344 L 1265 344 L 1267 346 L 1267 347 L 1268 348 L 1268 349 L 1269 349 L 1270 350 L 1270 351 L 1273 354 L 1273 355 L 1276 358 L 1276 359 L 1278 361 L 1278 363 L 1279 364 L 1279 365 L 1281 367 L 1281 368 L 1280 369 L 1264 369 L 1263 370 L 1250 370 L 1249 369 L 1249 354 L 1248 353 L 1248 344 L 1249 343 Z" data-sezione="6" data-area="680"></path>
            <path class="sezione" d="M 1154 310 L 1155 309 L 1155 308 L 1156 307 L 1167 307 L 1167 305 L 1168 304 L 1168 303 L 1170 301 L 1173 301 L 1174 302 L 1180 302 L 1181 303 L 1184 303 L 1185 304 L 1187 304 L 1188 305 L 1197 305 L 1199 307 L 1199 312 L 1200 313 L 1200 315 L 1201 316 L 1201 317 L 1202 318 L 1201 319 L 1200 319 L 1199 320 L 1197 320 L 1196 321 L 1191 321 L 1190 322 L 1189 322 L 1187 324 L 1186 323 L 1186 322 L 1184 320 L 1182 320 L 1181 321 L 1179 321 L 1178 322 L 1177 322 L 1177 323 L 1176 324 L 1175 324 L 1174 325 L 1171 322 L 1171 321 L 1168 318 L 1168 316 L 1167 315 L 1167 313 L 1166 312 L 1165 312 L 1164 311 L 1160 311 L 1159 312 L 1157 312 L 1156 313 L 1155 313 L 1154 312 Z" data-sezione="44" data-area="644"></path>
            <path class="sezione" d="M 331 246 L 331 247 L 330 248 L 327 248 L 326 249 L 321 249 L 320 250 L 320 253 L 321 254 L 321 260 L 318 263 L 317 263 L 316 262 L 316 260 L 314 258 L 311 258 L 310 257 L 302 257 L 301 258 L 300 258 L 294 264 L 293 264 L 292 265 L 291 265 L 290 266 L 288 266 L 285 269 L 284 269 L 284 270 L 283 271 L 282 271 L 281 270 L 281 265 L 282 264 L 282 263 L 283 262 L 283 260 L 284 259 L 284 255 L 283 254 L 281 254 L 280 253 L 279 253 L 277 251 L 277 249 L 280 246 L 280 245 L 281 244 L 283 246 L 283 248 L 284 249 L 284 250 L 285 251 L 286 251 L 287 252 L 289 252 L 290 253 L 293 253 L 295 251 L 295 248 L 297 246 L 298 246 L 299 245 L 300 246 L 306 246 L 307 245 L 308 245 L 310 243 L 311 243 L 312 242 L 316 242 L 317 241 L 318 241 L 319 242 L 319 243 L 318 244 L 318 246 L 319 247 L 322 247 L 323 246 L 326 246 L 327 245 L 330 245 Z" data-sezione="41" data-area="623"></path>
            <path class="sezione" d="M 1299 397 L 1299 402 L 1298 403 L 1297 403 L 1296 404 L 1260 404 L 1259 405 L 1253 405 L 1252 404 L 1250 404 L 1247 401 L 1247 397 L 1251 393 L 1252 394 L 1253 394 L 1256 397 L 1258 397 L 1259 398 L 1261 398 L 1262 399 L 1264 399 L 1269 394 L 1269 393 L 1270 392 L 1271 392 L 1272 391 L 1274 391 L 1275 390 L 1276 390 L 1277 389 L 1278 389 L 1280 387 L 1281 387 L 1283 385 L 1284 385 L 1286 387 L 1290 387 L 1291 388 L 1292 388 L 1293 389 L 1295 389 L 1296 390 L 1297 390 L 1298 391 L 1298 396 Z" data-sezione="22" data-area="621"></path>
            <path class="sezione" d="M 1327 379 L 1328 378 L 1331 378 L 1332 379 L 1341 379 L 1341 378 L 1342 377 L 1343 377 L 1344 378 L 1347 378 L 1349 376 L 1350 377 L 1351 377 L 1352 378 L 1356 378 L 1357 379 L 1357 381 L 1358 382 L 1358 383 L 1359 384 L 1359 385 L 1360 386 L 1359 387 L 1359 388 L 1357 390 L 1357 391 L 1358 392 L 1358 394 L 1359 395 L 1359 396 L 1360 397 L 1360 398 L 1361 399 L 1361 400 L 1362 401 L 1361 402 L 1359 402 L 1358 401 L 1357 401 L 1356 400 L 1354 400 L 1353 399 L 1350 399 L 1349 398 L 1347 398 L 1346 397 L 1340 397 L 1339 396 L 1330 396 L 1329 395 L 1328 395 L 1327 394 Z" data-sezione="26" data-area="613"></path>
            <path class="sezione" d="M 1207 333 L 1209 335 L 1209 336 L 1210 336 L 1211 337 L 1211 338 L 1212 338 L 1213 339 L 1213 341 L 1214 342 L 1214 344 L 1215 345 L 1215 346 L 1218 346 L 1219 347 L 1219 348 L 1221 350 L 1221 356 L 1219 358 L 1219 365 L 1226 365 L 1227 366 L 1227 370 L 1228 371 L 1227 372 L 1210 372 L 1209 371 L 1209 359 L 1208 358 L 1205 358 L 1204 357 L 1199 357 L 1198 358 L 1195 358 L 1194 357 L 1194 350 L 1195 349 L 1199 349 L 1199 348 L 1201 346 L 1201 344 L 1202 343 L 1202 342 L 1203 341 L 1203 340 L 1205 338 L 1205 335 Z" data-sezione="4" data-area="598"></path>
            <path class="sezione" d="M 454 194 L 455 195 L 456 195 L 459 198 L 460 198 L 463 201 L 464 201 L 467 204 L 475 204 L 477 202 L 479 204 L 486 204 L 488 206 L 489 206 L 490 207 L 490 210 L 489 211 L 488 211 L 487 212 L 484 212 L 483 213 L 482 212 L 482 209 L 474 209 L 474 211 L 473 212 L 473 213 L 474 214 L 482 214 L 483 215 L 482 216 L 482 219 L 484 221 L 487 221 L 488 220 L 491 220 L 492 219 L 494 219 L 497 222 L 497 227 L 496 228 L 496 231 L 497 231 L 498 232 L 498 236 L 499 237 L 499 240 L 498 241 L 498 242 L 497 243 L 494 243 L 492 241 L 492 240 L 489 237 L 489 234 L 487 232 L 487 231 L 481 225 L 477 225 L 476 224 L 476 222 L 475 221 L 475 220 L 474 220 L 473 219 L 473 217 L 466 210 L 466 208 L 465 207 L 465 206 L 462 206 L 461 205 L 460 205 L 458 203 L 458 201 L 453 196 L 453 195 Z" data-sezione="51" data-area="568"></path>
            <path class="sezione" d="M 1163 340 L 1164 340 L 1166 342 L 1166 345 L 1169 348 L 1169 351 L 1174 351 L 1175 352 L 1178 352 L 1179 353 L 1179 358 L 1178 359 L 1172 359 L 1171 360 L 1171 366 L 1170 367 L 1166 367 L 1166 371 L 1164 373 L 1162 373 L 1161 372 L 1160 372 L 1159 371 L 1159 370 L 1158 369 L 1158 368 L 1156 368 L 1154 370 L 1152 370 L 1151 369 L 1151 353 L 1153 351 L 1153 350 L 1155 348 L 1155 347 L 1156 346 L 1156 345 L 1158 343 L 1159 343 L 1161 341 L 1162 341 Z" data-sezione="1" data-area="544"></path>
            <path class="sezione" d="M 1239 315 L 1240 314 L 1241 315 L 1245 315 L 1246 316 L 1251 316 L 1252 317 L 1252 326 L 1251 327 L 1251 331 L 1252 332 L 1250 334 L 1248 332 L 1248 327 L 1246 327 L 1245 328 L 1244 328 L 1244 330 L 1245 330 L 1246 331 L 1246 332 L 1244 334 L 1244 335 L 1256 335 L 1257 334 L 1257 332 L 1256 331 L 1256 327 L 1257 326 L 1258 327 L 1266 327 L 1268 325 L 1275 325 L 1276 326 L 1276 327 L 1277 327 L 1278 328 L 1277 329 L 1276 329 L 1276 330 L 1275 331 L 1275 332 L 1274 333 L 1274 334 L 1273 335 L 1273 337 L 1272 338 L 1272 339 L 1271 340 L 1270 340 L 1269 341 L 1268 341 L 1267 342 L 1263 342 L 1262 341 L 1259 341 L 1258 340 L 1256 340 L 1255 339 L 1254 339 L 1253 338 L 1249 338 L 1248 337 L 1239 337 L 1238 336 L 1238 325 L 1239 324 Z" data-sezione="15" data-area="541"></path>
            <path class="sezione" d="M 274 186 L 277 183 L 279 183 L 280 182 L 282 182 L 284 180 L 285 180 L 285 179 L 286 178 L 288 178 L 289 177 L 290 177 L 291 176 L 292 176 L 293 175 L 294 176 L 294 177 L 296 179 L 298 179 L 299 178 L 300 179 L 303 179 L 304 178 L 307 181 L 309 181 L 309 180 L 310 179 L 311 180 L 311 182 L 312 182 L 315 185 L 315 187 L 316 188 L 316 190 L 317 190 L 318 191 L 320 191 L 321 192 L 323 192 L 324 191 L 326 191 L 327 190 L 328 190 L 329 191 L 330 191 L 331 190 L 332 190 L 333 191 L 332 192 L 332 194 L 333 195 L 336 195 L 337 194 L 338 194 L 339 193 L 340 193 L 341 194 L 341 195 L 340 196 L 340 199 L 342 201 L 346 201 L 347 202 L 347 203 L 346 204 L 345 203 L 342 203 L 341 204 L 340 203 L 337 203 L 337 205 L 338 206 L 337 207 L 336 207 L 334 205 L 333 205 L 332 204 L 332 200 L 326 200 L 325 201 L 320 196 L 318 196 L 316 194 L 314 194 L 313 195 L 310 195 L 309 194 L 309 190 L 308 189 L 308 187 L 303 187 L 302 186 L 302 185 L 301 184 L 298 184 L 297 185 L 292 185 L 291 186 L 287 186 L 286 187 L 276 187 L 275 188 L 274 187 Z" data-sezione="13" data-area="539"></path>
            <path class="sezione" d="M 1328 397 L 1332 397 L 1333 398 L 1337 403 L 1338 402 L 1335 403 L 1341 404 L 1342 405 L 1341 406 L 1341 411 L 1343 413 L 1344 413 L 1345 414 L 1346 414 L 1347 415 L 1349 415 L 1350 416 L 1352 416 L 1353 417 L 1354 417 L 1355 418 L 1357 418 L 1357 417 L 1359 415 L 1359 413 L 1360 412 L 1360 411 L 1361 410 L 1361 409 L 1362 408 L 1367 408 L 1369 410 L 1369 412 L 1368 413 L 1368 414 L 1367 415 L 1367 416 L 1366 417 L 1366 418 L 1365 419 L 1365 420 L 1364 421 L 1364 423 L 1362 425 L 1362 427 L 1361 428 L 1361 429 L 1359 431 L 1359 433 L 1356 436 L 1356 437 L 1355 438 L 1354 437 L 1353 437 L 1351 435 L 1351 434 L 1350 434 L 1349 433 L 1349 432 L 1348 431 L 1347 431 L 1346 430 L 1347 429 L 1352 429 L 1352 427 L 1351 426 L 1352 425 L 1352 421 L 1347 421 L 1346 422 L 1346 423 L 1348 425 L 1346 427 L 1346 428 L 1345 429 L 1343 427 L 1343 426 L 1342 426 L 1338 422 L 1338 421 L 1337 420 L 1337 419 L 1340 416 L 1340 415 L 1339 414 L 1339 413 L 1336 410 L 1335 410 L 1331 408 L 1334 400 L 1329 405 L 1328 401 L 1328 399 L 1327 398 Z" data-sezione="29" data-area="515"></path>
            <path class="sezione" d="M 1615 316 L 1619 316 L 1620 317 L 1621 317 L 1627 323 L 1627 324 L 1630 327 L 1630 328 L 1631 328 L 1632 329 L 1632 330 L 1634 332 L 1636 332 L 1637 333 L 1636 334 L 1636 336 L 1637 337 L 1637 338 L 1638 339 L 1638 340 L 1639 341 L 1640 341 L 1641 342 L 1642 342 L 1644 344 L 1644 353 L 1645 354 L 1645 355 L 1647 357 L 1646 358 L 1645 358 L 1644 357 L 1641 357 L 1640 356 L 1637 356 L 1636 355 L 1635 355 L 1634 354 L 1631 354 L 1630 353 L 1629 353 L 1628 352 L 1628 351 L 1625 348 L 1625 347 L 1628 344 L 1628 343 L 1630 341 L 1630 340 L 1631 339 L 1631 338 L 1632 337 L 1632 336 L 1631 335 L 1627 335 L 1626 334 L 1625 334 L 1624 333 L 1622 333 L 1619 330 L 1619 329 L 1617 327 L 1617 326 L 1616 325 L 1616 324 L 1615 323 L 1615 321 L 1614 320 L 1614 317 Z" data-sezione="65" data-area="485"></path>
            <path class="sezione" d="M 400 210 L 402 210 L 404 212 L 404 213 L 405 214 L 405 219 L 407 219 L 408 220 L 416 220 L 417 221 L 417 227 L 418 228 L 418 231 L 419 232 L 419 233 L 418 234 L 416 234 L 415 235 L 414 235 L 411 238 L 411 239 L 409 241 L 405 237 L 404 237 L 402 235 L 401 235 L 400 234 L 400 230 L 401 229 L 409 229 L 410 228 L 410 224 L 409 223 L 406 223 L 405 224 L 405 227 L 404 228 L 403 227 L 403 223 L 401 223 L 400 224 L 400 225 L 401 225 L 402 226 L 402 227 L 401 228 L 392 228 L 391 227 L 392 226 L 392 224 L 390 222 L 389 222 L 375 226 L 372 220 L 386 217 L 381 219 L 389 216 L 395 213 L 397 213 Z" data-sezione="18" data-area="440"></path>
            <path class="sezione" d="M 442 249 L 443 248 L 443 247 L 446 244 L 446 243 L 448 241 L 448 240 L 449 239 L 449 238 L 450 237 L 450 235 L 451 234 L 451 233 L 452 232 L 452 231 L 455 228 L 456 229 L 458 229 L 460 231 L 460 232 L 461 233 L 466 233 L 469 236 L 470 236 L 471 237 L 469 239 L 469 240 L 468 241 L 468 244 L 471 247 L 471 248 L 470 249 L 470 250 L 469 251 L 468 251 L 467 250 L 462 250 L 461 249 L 459 249 L 458 250 L 458 251 L 457 252 L 454 249 L 451 249 L 449 247 L 446 247 L 445 248 L 445 251 L 444 252 L 443 251 L 443 250 Z" data-sezione="67" data-area="393"></path>
            <path class="sezione" d="M 1509 388 L 1510 387 L 1514 387 L 1517 390 L 1517 392 L 1532 392 L 1533 393 L 1533 394 L 1534 395 L 1535 395 L 1536 396 L 1536 397 L 1537 398 L 1536 399 L 1533 399 L 1532 400 L 1529 400 L 1527 398 L 1527 397 L 1523 397 L 1522 398 L 1522 400 L 1521 401 L 1520 400 L 1520 397 L 1517 397 L 1517 398 L 1515 400 L 1515 403 L 1516 403 L 1517 404 L 1517 405 L 1521 405 L 1522 404 L 1523 405 L 1526 405 L 1527 406 L 1527 407 L 1526 408 L 1510 408 L 1509 407 L 1509 400 L 1508 399 L 1508 398 L 1509 397 Z" data-sezione="40" data-area="301"></path>
            <path class="sezione" d="M 393 230 L 397 230 L 398 231 L 398 234 L 399 235 L 399 236 L 400 236 L 403 239 L 404 239 L 409 244 L 410 244 L 413 247 L 413 248 L 412 249 L 412 250 L 411 251 L 411 255 L 409 257 L 408 256 L 407 256 L 405 254 L 405 253 L 402 250 L 402 249 L 401 248 L 401 247 L 400 246 L 400 245 L 399 244 L 394 244 L 393 245 L 392 244 L 391 244 L 390 243 L 390 240 L 391 239 L 391 235 L 392 234 L 392 231 Z" data-sezione="70" data-area="259"></path>
            <path class="sezione" d="M 1148 316 L 1135 316 L 1124 318 L 1120 323 L 1118 328 L 1114 335 L 1112 341 L 1111 343 L 1150 321 Z" data-sezione="10" data-area="0"></path>
            <path class="sezione" d="M 1546 410 L 1556 411 L 1555 406 L 1557 403 L 1568 404 L 1568 411 L 1571 416 L 1570 421 L 1569 423 L 1562 420 L 1560 422 L 1559 422 L 1545 421 Z" data-sezione="37" data-area="0"></path>
            <path class="sezione" d="M 1553 392 L 1562 396 L 1585 398 L 1586 403 L 1585 403 L 1593 407 L 1594 412 L 1569 411 L 1567 407 L 1569 404 L 1564 403 L 1555 403 L 1555 407 L 1555 411 L 1545 411 L 1546 404 L 1550 398 L 1550 393 Z" data-sezione="38" data-area="0"></path>
            <path class="sezione" d="M 1284 370 L 1286 377 L 1285 379 L 1285 383 L 1284 385 L 1287 388 L 1290 386 L 1294 387 L 1294 389 L 1306 391 L 1312 392 L 1314 386 L 1315 384 L 1312 380 L 1307 380 L 1305 378 L 1299 378 L 1299 372 Z" data-sezione="24" data-area="0"></path>
            <path class="sezione" d="M 1301 393 L 1299 404 L 1326 404 L 1327 382 L 1321 382 L 1319 383 L 1314 383 L 1313 394 L 1300 390 L 1298 389 L 1299 394 L 1299 398 Z" data-sezione="23" data-area="0"></path>
            <path class="sezione" d="M 1148 315 L 1162 311 L 1165 313 L 1167 314 L 1168 317 L 1166 319 L 1167 321 L 1169 321 L 1171 322 L 1173 326 L 1181 322 L 1184 321 L 1186 323 L 1186 325 L 1172 334 L 1171 334 L 1168 329 L 1163 332 L 1161 334 L 1155 333 L 1149 335 L 1143 325 L 1150 321 Z" data-sezione="11" data-area="0"></path>
            <path class="sezione" d="M 323 233 L 322 237 L 318 236 L 318 239 L 321 242 L 320 245 L 331 245 L 334 247 L 336 242 L 339 245 L 341 247 L 352 247 L 355 249 L 357 252 L 359 249 L 362 248 L 367 249 L 372 250 L 365 251 L 364 255 L 359 255 L 358 258 L 378 265 L 389 266 L 394 271 L 395 277 L 402 274 L 410 282 L 408 273 L 402 267 L 393 259 L 399 263 L 403 256 L 410 258 L 413 253 L 424 256 L 427 261 L 438 261 L 448 264 L 475 263 L 488 264 L 491 261 L 486 259 L 490 251 L 488 245 L 483 243 L 478 247 L 473 248 L 468 243 L 472 236 L 466 231 L 464 233 L 462 230 L 457 226 L 452 226 L 443 250 L 437 250 L 432 252 L 428 252 L 425 251 L 423 248 L 422 247 L 425 253 L 425 255 L 418 254 L 411 252 L 414 246 L 401 235 L 399 229 L 390 228 L 390 225 L 388 222 L 381 225 L 375 227 L 366 214 L 361 213 L 355 211 L 347 202 L 339 204 L 333 209 L 336 224 L 331 216 L 331 226 L 327 227 L 325 229 Z" data-sezione="53" data-area="0"></path>

        
<path class="sezione" d="M 479 225 L 478 230 L 480 232 L 481 235 L 482 238 L 487 240 L 487 245 L 491 250 L 487 258 L 491 260 L 511 251 L 521 249 L 527 248 L 527 244 L 511 246 L 501 245 L 498 241 L 495 242 L 488 232 L 478 224 Z" data-sezione="49"></path><path class="sezione" d="M 1190 320 L 1164 338 L 1166 342 L 1169 348 L 1174 351 L 1179 352 L 1179 359 L 1195 360 L 1196 350 L 1202 341 L 1212 326 L 1224 327 L 1223 317 L 1216 315 L 1193 320 Z" data-sezione="2"></path><path class="sezione" d="M 1333 397 L 1333 401 L 1340 403 L 1341 411 L 1356 417 L 1360 409 L 1367 407 L 1370 412 L 1375 409 L 1372 399 L 1357 375 L 1358 382 L 1360 385 L 1356 389 L 1360 400 L 1338 396 Z" data-sezione="28"></path><path class="sezione" d="M 1455 401 L 1457 393 L 1461 392 L 1465 393 L 1469 396 L 1472 390 L 1498 393 L 1499 398 L 1487 402 L 1487 406 L 1465 406 L 1460 403 Z" data-sezione="32"></path></g>
                <g id="trace-layer"></g>
                <g id="edit-layer"></g>
            </svg>